<?xml version="1.0" standalone="no"?>
<!DOCTYPE svg PUBLIC "-//W3C//DTD SVG 1.1//EN" "http://www.w3.org/Graphics/SVG/1.1/DTD/svg11.dtd" >
<svg xmlns="http://www.w3.org/2000/svg">
<metadata>
Created by FontForge 20120731 at Mon May 16 09:43:15 2016
 By admin
</metadata>
<defs>
<font id="iconfont" horiz-adv-x="1024" >
  <font-face 
    font-family="iconfont"
    font-weight="500"
    font-stretch="normal"
    units-per-em="1024"
    panose-1="2 0 6 3 0 0 0 0 0 0"
    ascent="896"
    descent="-128"
    x-height="792"
    bbox="0 -212 1326.76 897"
    underline-thickness="50"
    underline-position="-100"
    unicode-range="U+0078-E65C"
  />
<missing-glyph horiz-adv-x="374" 
d="M34 0v682h272v-682h-272zM68 34h204v614h-204v-614z" />
    <glyph glyph-name=".notdef" horiz-adv-x="374" 
d="M34 0v682h272v-682h-272zM68 34h204v614h-204v-614z" />
    <glyph glyph-name=".null" horiz-adv-x="0" 
 />
    <glyph glyph-name="nonmarkingreturn" horiz-adv-x="341" 
 />
    <glyph glyph-name="x" unicode="x" horiz-adv-x="1001" 
d="M281 543q-27 -1 -53 -1h-83q-18 0 -36.5 -6t-32.5 -18.5t-23 -32t-9 -45.5v-76h912v41q0 16 -0.5 30t-0.5 18q0 13 -5 29t-17 29.5t-31.5 22.5t-49.5 9h-133v-97h-438v97zM955 310v-52q0 -23 0.5 -52t0.5 -58t-10.5 -47.5t-26 -30t-33 -16t-31.5 -4.5q-14 -1 -29.5 -0.5
t-29.5 0.5h-32l-45 128h-439l-44 -128h-29h-34q-20 0 -45 1q-25 0 -41 9.5t-25.5 23t-13.5 29.5t-4 30v167h911zM163 247q-12 0 -21 -8.5t-9 -21.5t9 -21.5t21 -8.5q13 0 22 8.5t9 21.5t-9 21.5t-22 8.5zM316 123q-8 -26 -14 -48q-5 -19 -10.5 -37t-7.5 -25t-3 -15t1 -14.5
t9.5 -10.5t21.5 -4h37h67h81h80h64h36q23 0 34 12t2 38q-5 13 -9.5 30.5t-9.5 34.5q-5 19 -11 39h-368zM336 498v228q0 11 2.5 23t10 21.5t20.5 15.5t34 6h188q31 0 51.5 -14.5t20.5 -52.5v-227h-327z" />
    <glyph glyph-name="uniE600" unicode="&#xe600;" 
d="M862 769h-700q-53 0 -90.5 -37.5t-37.5 -89.5v-446q0 -52 37.5 -89.5t90.5 -37.5h700q52 0 89.5 37.5t37.5 89.5v446q0 52 -37.5 89.5t-89.5 37.5zM799 451q-27 9 -83 16q-60 6 -73 19q-4 8 12 57q34 100 16 169q97 -54 159 -130q44 -59 93 -198q-69 50 -124 67zM937 444
v-3q-44 114 -83 160q-5 6 -12 14v1q-46 52 -121 102h153q23 0 40.5 -14.5t22.5 -36.5v-221l1 -5q-1 1 -1 2v1z" />
    <glyph glyph-name="uniE601" unicode="&#xe601;" 
d="M971 166q-2 12 -6.5 30t-7 34t-2.5 32q-1 78 -3 103q-9 127 -58 200q-38 56 -107.5 93t-149 49.5t-158 11.5t-147.5 -15q-79 -17 -135 -65q-83 -69 -119 -217q-11 -43 -16 -133t-17 -133q-8 -31 4 -37t39 2q84 15 129 23t116.5 16t131.5 9q198 3 454 -48q39 -8 48 2.5
t4 42.5zM389 532.5q-49 -2.5 -84 7.5t-36 26t33 28.5t83 14.5t84.5 -7.5t36 -25.5t-33.5 -28.5t-83 -15z" />
    <glyph glyph-name="uniE602" unicode="&#xe602;" 
d="M753 788h-475q-98 0 -167 -69t-69 -167t69 -167t167 -69h437q2 -14 4 -46q-10 -102 -158 -92q-36 5 -52.5 5.5t-55.5 -5.5q-31 -6 -60.5 -27t-50.5 -48.5t-32 -45t-19 -33.5q-16 -3 -26 -15t-10 -28q0 -19 13.5 -32t32.5 -13t32.5 13t13.5 32q0 16 -10 28t-26 16
q7 15 25 42q23 34 35 45q32 28 70 44t69 9q39 -8 89 -6q45 2 85 22q23 13 36 33.5t15.5 42t2.5 35t-2 24.5h17q97 0 166.5 69t69.5 167t-69.5 167t-166.5 69zM709.5 649q-51.5 0 -87.5 13t-36 31.5t36 31.5t87.5 13t88 -13t36.5 -31.5t-36.5 -31.5t-88 -13z" />
    <glyph glyph-name="uniE603" unicode="&#xe603;" 
d="M512 832q-185 0 -316.5 -131.5t-131.5 -316.5t131.5 -316.5t316.5 -131.5t316.5 131.5t131.5 316.5t-131.5 316.5t-316.5 131.5zM765 96q0 22 -21 30q-2 1 -15 6.5t-24 9.5t-27 9.5t-34 10t-36 7.5v14q46 45 74 122.5t28 146.5q0 96 -47.5 148t-134.5 52
q-89 0 -140.5 -53t-51.5 -147q0 -50 19 -130t61 -131v-17q-92 -23 -142 -40q-11 -4 -16 -14.5t-2 -21.5q-61 53 -95 127.5t-34 158.5q0 104 51.5 192.5t140 140t193 51.5t193 -51.5t140 -140t51.5 -192.5q0 -85 -35 -160t-96 -128z" />
    <glyph glyph-name="uniE604" unicode="&#xe604;" 
d="M200 428l-2 6l-1 6l-1 4v5v5v5l1 6l2 7l2 6l3 8l4 8l5 7v6l1 5l1 7l2 7l2 9l2 4l2 3l2 4l3 3v5v7v7l2 10l1 11l3 14l4 14l3 8l3 9l3 8l4 8l4 9l4 9l6 9l6 10l3 5l3 4l7 10l7 10l8 10l8 10l10 10l9 10l12 10l7 7l9 7l10 6l10 6l9 5l11 5l11 5l12 4l11 4l12 4l12 2l13 3
l13 2l13 2l13 1l14 1h13h13h14l14 -1l13 -2l14 -2l13 -3l13 -3l13 -3l14 -4l13 -4l12 -5l13 -6l12 -6l12 -6l11 -8l10 -6l4 -4l5 -3l9 -8l8 -7l7 -8l8 -8l6 -9l7 -8l5 -9l5 -8l6 -10l4 -8l8 -17l4 -9l3 -9l3 -9l2 -8l2 -8l2 -8l5 -16l2 -13l2 -13l1 -10l3 -16v-3l2 -3l5 -8
l3 -6l3 -5l4 -7l3 -7l2 -8l3 -8l1 -9l1 -4l1 -5v-5l-1 -4v-6l-1 -5l-3 -11l-2 -5l-2 -6v-2l1 -1l2 -5l12 -17l10 -14l4 -9l6 -9l6 -11l6 -11l6 -13l7 -15l4 -8l3 -9l3 -9l3 -8l3 -9l2 -8l3 -16l2 -16l2 -14v-8v-7v-6l-1 -7l-2 -12l-2 -11l-3 -10l-1 -5l-3 -4l-2 -4l-2 -4
l-3 -3l-2 -3l-3 -3l-3 -2l-3 -2l-3 -1l-2 -1h-2h-2l-2 1l-5 2l-2 1l-2 2l-3 2l-2 3l-4 4l-5 6l-3 6l-4 6l-4 6l-5 10l-5 11l-1 1h-1l-2 -2l-2 -3l-2 -4l-4 -10l-6 -16l-7 -18l-6 -9l-6 -10l-7 -10l-7 -11l-4 -5l-5 -5l-10 -10l1 -1l1 -2l5 -3l23 -10l9 -6l9 -5l10 -7l8 -7
l4 -3l3 -3l3 -5l2 -4l1 -4l2 -4l1 -4l1 -5l-1 -3v-3l-1 -3l-2 -3v-2l-2 -3l-4 -5l-3 -5l-3 -3l-3 -2l-6 -5l-7 -4l-7 -4l-8 -3l-9 -3l-5 -2l-4 -1l-10 -3l-11 -2l-10 -2l-12 -2h-12l-12 -2h-12h-13h-13l-14 1l-12 1l-14 2l-14 1l-14 2l-14 4l-13 3l-14 3l-14 5l-13 4l-7 3
l-7 2l-4 2h-4h-5h-6l-13 1l-7 1l-8 1l-6 -5l-7 -5l-10 -5l-11 -6l-7 -3l-7 -3l-16 -6l-8 -2l-9 -3l-13 -2l-7 -1h-8l-9 -1l-10 -1h-9h-10h-22l-22 1l-23 2l-11 2l-11 1l-10 2l-11 2l-10 3l-10 2l-9 4l-8 3l-8 4l-7 4l-6 5l-3 2l-3 3l-2 3l-2 3l-2 3l-1 3l-2 6l-1 3l-1 4v3
l1 4v3l1 4v2v6v4l2 4l1 5l3 5l2 2l1 3l5 5l3 2l3 2l3 3l5 1l3 2l5 3l5 1l6 2l6 1l6 1l6 1l8 1h2l1 1v1l-1 2l-4 2l-10 8l-7 6l-7 6l-8 8l-8 10l-10 10l-3 6l-5 6l-4 7l-3 8l-5 7l-3 9l-4 8l-4 9l-2 9l-3 11l-1 1h-1v1h-1l-1 -1l-1 -1l-1 -2l-1 -2l-1 -2l-1 -3l-5 -8l-2 -5
l-4 -4l-4 -5l-4 -6l-5 -5l-5 -5l-5 -5l-6 -3l-6 -4l-6 -2l-7 -2l-6 -1h-1h-1l-1 1l-2 2l-2 2l-2 6l-2 4l-2 4l-1 6l-1 5l-2 11l-1 7v7v15l1 17l1 8l2 9l1 10l3 8l3 10l3 10l4 10l3 10l6 10l4 10l6 10l7 11l7 10l7 11l7 7l7 9l9 8l3 4l5 5l7 6l7 6l11 10l9 6z" />
    <glyph glyph-name="uniE605" unicode="&#xe605;" 
d="M522 340q-31 0 -53 -21.5t-22 -52.5q0 -22 12 -40t31 -27v-83q0 -13 9.5 -22.5t22.5 -9.5t22.5 9.5t9.5 22.5v83q19 9 31 27t12 40q0 31 -22 52.5t-53 21.5zM831 490h-640q-26 0 -45 -19t-19 -45v-427q0 -26 19 -45t45 -19h640q27 0 45.5 19t18.5 45v427q0 26 -18.5 45
t-45.5 19zM831 42q0 -27 -8 -35t-34 -8h-555q-27 0 -35 8t-8 35v341q0 27 8 35t35 8h555q26 0 34 -8t8 -35v-341zM209 522q13 0 22.5 9.5t10.5 22.5q22 92 97 152.5t172 60.5q76 0 139.5 -37.5t100.5 -100.5q8 -19 29 -19q14 0 23 9t9 23q0 10 -5 18q-46 78 -124.5 124.5
t-171.5 46.5q-123 0 -216.5 -75.5t-117.5 -193.5v-2l-1 -1v-1v-3q0 -14 9.5 -23.5t23.5 -9.5z" />
    <glyph glyph-name="uniE606" unicode="&#xe606;" 
d="M693 549q15 0 35 -2q-23 109 -127.5 181.5t-238.5 72.5q-98 0 -181 -40.5t-132 -111.5t-49 -156q0 -143 145 -245l-36 -109l127 64q6 -2 25 -5.5t27 -5t22.5 -4t26.5 -3t25 -0.5q16 0 34 1q-11 38 -11 76q0 119 89.5 203t218.5 84zM498 647q21 0 33.5 -12.5t12.5 -33
t-12.5 -33t-33.5 -12.5t-37.5 13t-16.5 32.5t16.5 32.5t37.5 13zM245 556q-22 0 -38.5 13t-16.5 32.5t16.5 32.5t38.5 13q20 0 32.5 -12.5t12.5 -33t-12.5 -33t-32.5 -12.5zM1024 266q0 71 -43 132t-113.5 96t-151.5 35q-129 0 -218.5 -77t-89.5 -186t89.5 -186t218.5 -77
q37 0 109 18l99 -54l-27 90q127 96 127 209zM616 312q-13 0 -24.5 11t-11.5 24.5t11.5 25t24.5 11.5q20 0 33 -11t13 -25.5t-13 -25t-33 -10.5zM815 312q-13 0 -24.5 11t-11.5 24.5t11.5 25t24.5 11.5q20 0 33 -11t13 -25.5t-13 -25t-33 -10.5z" />
    <glyph glyph-name="uniE607" unicode="&#xe607;" 
d="M394.5 100q-19.5 0 -33.5 -14t-14 -34t14 -34t33.5 -14t33.5 14t14 34t-14 34t-33.5 14zM631 854h-474q-29 0 -50.5 -21t-21.5 -51v-796q0 -30 21.5 -51t50.5 -21h474q30 0 51.5 21t21.5 51v796q0 30 -21.5 51t-51.5 21zM157 806h474q10 0 17 -7t7 -17v-596h-522v596
q0 10 7 17t17 7zM631 -38h-474q-10 0 -17 7t-7 17v148h522v-148q0 -10 -7 -17t-17 -7z" />
    <glyph glyph-name="uniE608" unicode="&#xe608;" 
d="M353 64q-26 0 -45 -18.5t-19 -45t19 -45.5t45.5 -19t45 19t18.5 45.5t-18.5 45t-45.5 18.5zM801 64q-26 0 -45 -18.5t-19 -45t19 -45.5t45.5 -19t45 19t18.5 45.5t-18.5 45t-45.5 18.5zM937 708q-25 28 -63 28h-641l-2 13q-5 35 -32 59t-62 24h-40q-13 0 -22.5 -9.5
t-9.5 -22.5t9.5 -22.5t22.5 -9.5h40q11 0 20 -8.5t10 -19.5l31 -179l54 -382q5 -35 31.5 -59t61.5 -24h520q13 0 22.5 9.5t9.5 22.5t-9.5 22.5t-22.5 9.5h-520q-10 0 -19 8t-10 19l-5 38l507 31q35 0 61.5 24t30.5 58l51 288q6 48 -24 82z" />
    <glyph glyph-name="uniE609" unicode="&#xe609;" 
d="M982 492l-409 320q-26 21 -62 21t-62 -21l-406 -321q-10 -8 -11.5 -21t6.5 -23.5t21 -12t24 6.5l13 11v-388q0 -40 34 -68t74 -28h640q38 0 61 26.5t23 69.5v389l14 -12q9 -7 20 -7q16 0 25 13q9 10 7 23t-12 22zM608 99v-67h-64h-64h-64v67v112q0 31 25 54t71 23t71 -23
t25 -54v-112z" />
    <glyph glyph-name="uniE60A" unicode="&#xe60a;" 
d="M527 857q98 0 183 -35t148.5 -95.5t100 -142.5t36.5 -175q0 -94 -38 -176t-103 -143q-21 -23 -55 -23q-24 0 -45 14q-45 30 -65.5 62t-29.5 66.5t-13 70t-16 71t-39 71.5t-81 72q-27 18 -51.5 26.5t-48.5 15.5t-46.5 15.5t-48 25.5t-52 44.5t-56.5 73.5q28 40 65.5 70
t80 50.5t87.5 31t87 10.5zM574 348q16 -34 22 -65.5t9 -61t9 -56.5t22 -51.5t45.5 -47t81.5 -41.5q3 -4 5.5 -13t5.5 -21t10.5 -28t21.5 -32q-98 -24 -182.5 -27.5t-169.5 21.5q10 24 14.5 44t5.5 36.5t0.5 32t-1.5 31.5q-3 32 -23 39.5t-46.5 4t-53.5 -13t-43 -11.5
q-19 -3 -39 -5t-37.5 1t-28 10.5t-7.5 24.5q2 13 5 30.5t3 36t-6 35.5t-21 29q-7 4 -21.5 11t-28 16t-20 17.5t3.5 17.5q22 16 45 37t35 45q5 11 6 23t-0.5 22.5t-3.5 18.5t-2 13.5t-4.5 14t-9 24t-6.5 38.5t2 58q-28 -8 -40 -33t-8 -62q-17 26 -18 48.5t7 40.5t24 32t33 24
q29 -61 62 -91.5t69.5 -46.5t74 -23t73 -21.5t67.5 -42t58 -83.5z" />
    <glyph glyph-name="uniE60B" unicode="&#xe60b;" horiz-adv-x="1033" 
d="M150 516l-141 -141l141 -141l140 141zM153 338l-42 -22l8 47l-34 33l47 7l21 42l21 -42l46 -7l-34 -33l8 -47zM612 392h31v6q0 6 -3 7q-1 1 -4 1h-24v-14zM388 329q0 -7 8 -7h68q7 0 7 7v7h-83v-7zM464 360h-68q-8 0 -8 -7v-7h83v6q0 5 -1.5 6.5t-5.5 1.5zM572 383h29
v-15h-29v15zM419 423h20v-33h-20v33zM612 383h31v-15h-31v15zM573 405q-1 -2 -1 -6v-7h29v14h-22q-4 0 -6 -1zM701 427v-20h42v27h-35q-7 0 -7 -7zM701 396h42v-28h-42v28zM755 396h43v-28h-43v28zM951 417h-79q-8 0 -8 -8v-20v-4h87q8 0 8 8v16q0 8 -8 8zM999 496h-800
l121 -121l-111 -112h790q7 0 12.5 5t5.5 12v198q0 8 -5.5 13t-12.5 5zM560 444q2 2 5 2h75q9 0 9 -7q0 -3 -3 -6q-7 -5 -25 -13q-2 -1 -4 -1l2 -1l1 -1l2 -1h19q13 0 13 -13v-56q0 -10 -5 -14q-5 -3 -12 -3q-15 0 -15 7q0 3 2 4t3 1h5q3 -1 5 -1q4 0 5 3q1 1 1 6v9h-31v-22
q0 -3 -2 -5t-4 -2t-3 2q-2 2 -2 5v22h-29v-24q0 -2 -1.5 -4t-4 -2t-4 1.5t-1.5 4.5v68q0 7 3 10t11 3h28q-4 2 -7 3q-11 5 -14 7q-2 2 -2 3q0 2 2 3q1 1 3 1q5 0 15 -5q1 0 7 -4q15 7 24 12h-66q-4 0 -5 2t-1 3q0 2 1 3zM527 447q1 1 3 1q3 0 7 -4q5 -6 11 -17q4 -6 4 -10
q0 -2 -2 -3q-1 -1 -4 -1t-6 5q-5 9 -12 19q-3 4 -3 6.5t2 3.5zM483 327q0 -5 -1 -8q-3 -5 -8 -7q-2 -1 -8 -1h-73q-6 0 -8 1q-5 2 -7 7q-1 3 -1 8v28q0 5 1 8q2 5 7 7q2 1 8 1h73q6 0 8 -1q5 -2 8 -7q1 -3 1 -8v-28zM495 380h-131q-3 0 -5 2q-1 1 -1 3t1.5 3.5t4.5 1.5h44
v33h-40q-3 0 -5 2q-1 2 -1 3q0 2 1.5 4t4.5 2h33q-2 3 -6 8q-2 4 -2 6q0 1 1 2q1 2 4 2q4 0 7 -3q3 -4 9 -15h30q4 7 7 12q3 6 7 6q2 0 4 -1q1 -2 1 -4q0 -4 -6 -13h34q6 0 6 -5.5t-6 -5.5h-41v-33h45q6 0 6 -5t-6 -5zM376 415q0 3 2 4t3 1q4 0 6 -3q4 -4 8 -13q2 -3 2 -5
q0 -3 -2 -4q-1 -1 -3 -1q-3 0 -6 5q-1 2 -5 6q-4 7 -5 10zM481 415q0 -3 -5 -12q-4 -7 -6 -9q-3 -1 -5 -1t-4 1q-1 2 -1 4t3 5q3 5 5 8q3 6 5 7.5t3.5 1.5t3 -1.5t1.5 -3.5zM657 312h-63q-26 0 -35 3q-6 3 -12 10q-4 4 -6 4t-10 -10q-5 -6 -6 -8q-3 -2 -5 -2q-3 0 -4 2t-1 3
q0 4 10 16q6 6 10 9v40v7q-1 2 -5 2h-9q-3 0 -4.5 1.5t-1.5 3.5q0 6 6 6h15q10 0 10 -13v-46q3 -2 8 -7q7 -8 16 -9q8 -2 18 -2h69q8 0 8 -5t-8 -5zM810 324q0 -10 -6 -14q-4 -3 -15 -3q-21 0 -21 9q0 5 5 5q1 0 8 -1q2 -1 8 -1q5 0 7 1q2 2 2 8v29h-43v-38q0 -4 -3 -6
q-1 -1 -3 -1t-4 2t-2 5v38h-42v-1v-1q0 -16 -9 -36q-3 -8 -6 -10q-2 -2 -4 -2q-3 0 -5 2q-1 2 -1 4t2 6q7 13 9 24t2 30v53q0 12 3.5 15.5t11.5 3.5h92q14 0 14 -15v-106zM970 389q0 -5 -1 -7q-2 -5 -7 -7q-2 -1 -7 -1h-92v-2q-2 -28 -9 -45q-9 -19 -17 -19q-2 0 -4 2
q-1 1 -1 3t1 3q1 2 4 7q6 8 10 21q3 12 4 27t1 27v14q0 6 1 8q2 5 7 7q3 1 8 1h43q-2 1 -6 8q-2 3 -3 4q-5 5 -5 7t2 4q1 1 3 1q4 0 8 -5q9 -10 9 -15q0 -2 -1 -4h37q5 0 7 -1q5 -2 7 -7q1 -2 1 -8v-23zM795 433q-1 1 -4 1h-36v-27h43v18q0 6 -3 8z" />
    <glyph glyph-name="uniE60C" unicode="&#xe60c;" 
d="M897 124zM143 458q-29 0 -50 -19.5t-21 -48t21 -48.5t50 -20t49.5 20t20.5 48.5t-20.5 48t-49.5 19.5zM354 674h562q15 0 25.5 10t10.5 24.5t-10.5 24.5t-25.5 10h-562q-15 0 -25 -10t-10 -24.5t10 -24.5t25 -10zM143 140q-29 0 -50 -20t-21 -48t21 -48t50 -20t49.5 20
t20.5 48t-20.5 48t-49.5 20zM916 424h-562q-15 0 -25 -10t-10 -24t10 -24t25 -10h562q15 0 25.5 10t10.5 24t-10.5 24t-25.5 10zM143 777q-29 0 -50 -20t-21 -48.5t21 -48.5t50 -20t49.5 20t20.5 48.5t-20.5 48.5t-49.5 20zM916 106h-562q-15 0 -25 -10t-10 -24t10 -24
t25 -10h562q15 0 25.5 10t10.5 24t-10.5 24t-25.5 10z" />
    <glyph glyph-name="uniE60D" unicode="&#xe60d;" 
d="M890 374q-2 11 -6 22q-6 13 -13 22l-6 6t-15 12q-11 6 -24 9q-3 1 -5 1h-1h-1h-3h-4h-1h-10q-5 -1 -8 -2q-21 -6 -37 -22q-5 -5 -9 -11q-1 -2 -2.5 -4.5t-2.5 -3.5q-2 -5 -3 -8l-1 -1v-1q-6 -15 -6 -31q0 -18 8 -35q6 -15 15 -24q16 -17 38 -23q7 -2 11 -2h6h2h1h1
q13 0 27 6q6 2 13 7q7 4 13 10q5 6 7 9q5 8 9 14q1 3 1 4l1 3t2 5h-39q-6 -11 -18 -17q-8 -4 -18 -4h-2h-1h-2q-8 1 -17 6q-1 0 -2 1l-2 2l-3 2l-1 1q-3 3 -5 6q-3 3 -5 7q0 1 -0.5 2t-0.5 2h118q0 1 0.5 3.5t0.5 4.5v2q1 2 1 6q0 10 -1 14zM812 382h-41q4 9 12 16q3 3 9 7
q10 4 20 4q12 0 23 -7q9 -5 15 -16q0 -1 2 -4h-40zM305 440q-14 -7 -24 -19q-8 -8 -13 -18q-1 -3 -4 -9q-5 -15 -5 -32q0 -23 9 -41q6 -11 13 -19q23 -23 55 -24h2q14 0 27 6q10 4 19 13v-19h34v168h-82q-17 0 -31 -6zM376 406q12 -11 8 -32t-21 -40q-12 -14 -27 -21
q-26 -12 -40 2q-11 12 -7.5 33t20.5 40q12 14 27 21q26 12 40 -3zM277 495h-44l-33 -129l-31 129h-32l-30 -129l-34 129h-45l61 -217h37l27 121l27 -121h37l51 184zM623 440v55h-39l-1 -216h42v90q0 37 28 37q14 -2 18.5 -9.5t4.5 -27.5v-91h42v107q0 28 -17 45.5
t-37.5 18.5t-40.5 -9zM473 439v7h-40l-1 -168h42l1 91q0 37 29 37q13 -3 18 -10t5 -27l1 -91h41v107q0 27 -17 44.5t-38 18.5t-41 -9zM978.5 482.5q-4.5 8.5 -13.5 13.5t-18.5 5t-18 -5t-13.5 -13.5t-5 -18t5 -18.5t13.5 -14t18 -5t18.5 5t13.5 14t4.5 18.5t-4.5 18z
M973 449q-4 -7 -11 -11.5t-15 -4.5t-15.5 4.5t-11.5 11.5t-4 15t4 15.5t11.5 11.5t15 4t15 -4t11.5 -11.5t4 -15.5t-4 -15zM953 463q7 3 7 11q0 5 -3 7q-4 4 -12 4q-6 0 -10 -1v-41h5v18h5q7 0 9 -8q1 -8 2 -10h6q-1 2 -3 12q-2 6 -6 8zM946 465h-6v15q2 1 5 1q10 0 10 -8
t-9 -8z" />
    <glyph glyph-name="uniE60E" unicode="&#xe60e;" 
d="M502 207q73 0 135 44.5t98 121t36 167t-36 167t-98 121t-135 44.5t-135 -44.5t-98 -121t-36 -167t36 -167t98 -121t135 -44.5zM501.5 812q86.5 0 148 -80t61.5 -192.5t-61.5 -192t-148 -79.5t-147.5 79.5t-61 192t61 192.5t147.5 80zM897 147l-204 74q-12 4 -23 -1
t-15.5 -17t1 -23t17.5 -16l204 -74q14 -5 25.5 -21t11.5 -32v-21q0 -20 -30 -20h-329h-106h-309q-30 0 -30 20v21q0 16 11.5 32t25.5 21l184 74q12 5 17 16t1 23t-15.5 17t-22.5 1l-184 -74q-33 -12 -55 -43.5t-22 -66.5v-21q0 -37 26 -59t64 -22h309h106h329q38 0 64 22
t26 59v21q0 35 -22.5 66.5t-54.5 43.5z" />
    <glyph glyph-name="uniE60F" unicode="&#xe60f;" 
d="M512 205q-16 0 -29 9l-393 255q-25 16 -25 45t25 44l394 249q28 18 56 0l394 -249q25 -15 25 -44t-25 -45l-393 -255q-13 -9 -29 -9zM117 511l395 -255h1l394 255v5l-394 248h-2l-394 -248l-14 -26zM512 -47q-16 0 -30 9l-394 279q-23 16 -23 44l1 232h50v-232l1 -3
l394 -278q1 -1 2 0l395 279v233h51v-233q0 -28 -24 -44l-393 -277q-14 -9 -30 -9zM477 244h51v-254h-51v254zM407 77q-12 0 -22 7l-105 73q-16 12 -16 31v78q0 15 11 26t27 11q12 0 22 -7l105 -76q16 -11 16 -31v-74q0 -16 -11.5 -27t-26.5 -11zM315 195l79 -55v43l-79 57
v-45zM737 661l28 -43l-446 -285l-28 43z" />
    <glyph glyph-name="uniE610" unicode="&#xe610;" 
d="M828 701q-63 63 -145 97t-171.5 34t-171 -34t-145 -97t-97.5 -145t-34 -172q0 -133 73 -244q7 -10 19.5 -13t23 4t13.5 20t-4 23q-63 96 -63 210q0 105 52 193.5t140.5 140.5t193 52t193.5 -52t140.5 -140.5t51.5 -193t-51.5 -193.5t-140.5 -140.5t-193 -51.5
q-108 0 -199 56q-11 6 -23.5 3t-19.5 -14t-4 -23.5t14 -19.5q107 -64 232 -64q89 0 171 34t145 97t97 145t34 171.5t-34 171.5t-97 145zM670.5 418q28.5 30 28.5 81q0 24 -8.5 46t-25 38.5t-37.5 25.5q-18 8 -39 11q-23 3 -53 3h-148q-30 0 -44 -14t-14 -42v-347
q0 -26 13 -41q12 -15 34 -15q20 0 33 14q12 13 12 42v146h33q23 0 41 -7q15 -6 31 -24q15 -18 35 -52l37 -60q13 -22 20 -33q8 -11 18.5 -18.5t25.5 -7.5q13 0 23 5.5t15.5 14t5.5 17.5t-9.5 31.5t-27 51t-39.5 54t-47 37.5q58 13 86.5 43zM595 455q-12 -13 -35 -19
q-20 -5 -55 -5h-83v123h86q46 0 63 -7q16 -7 25.5 -21t9.5 -33q0 -24 -11 -38z" />
    <glyph glyph-name="uniE611" unicode="&#xe611;" 
d="M801 384q0 61 -30.5 112.5t-80.5 80.5q-9 5 -15 5q-11 0 -19 -8t-8 -19q0 -16 13 -23q39 -22 62.5 -61.5t23.5 -86.5t-24 -87t-65 -62q-12 -8 -12 -23q0 -11 7.5 -19t18.5 -8l14 4q52 29 83.5 81t31.5 114zM770 713q-9 5 -16 5q-11 0 -18.5 -7.5t-7.5 -18.5q0 -16 15 -24
q74 -44 118.5 -119t44.5 -164.5t-44.5 -165t-118.5 -119.5q-16 -8 -16 -24q0 -11 8 -18.5t19 -7.5q6 0 15 5q87 50 138.5 137.5t51.5 191.5t-51.5 191.5t-137.5 137.5zM135 569h132q17 0 50 17.5t113 76.5q28 20 59 44v-348q0 -11 8 -19t19 -8t19 8t8 19q0 1 -0.5 100
t-0.5 197v98q0 20 -18.5 29t-34.5 -3q-40 -33 -100 -77q-97 -72 -123 -80h-114h-1h-1h-58q-11 0 -19 -8t-8 -19v-424q0 -11 8 -19t19 -8h195q25 -9 111 -79q35 -29 90 -76q9 -9 21 -9q7 0 14 3q19 9 19 30v149v1v1q-1 10 -8.5 17.5t-18.5 7.5t-18.5 -8t-7.5 -19v-98
q-24 21 -47 39q-72 59 -103.5 77t-48.5 18h-1h-1v0h-147q-14 0 -18.5 4.5t-4.5 19.5v325q0 11 3 16t14 5zM135 569z" />
    <glyph glyph-name="uniE612" unicode="&#xe612;" 
d="M548.5 -91q15.5 0 25.5 10l439 439q11 11 11 26t-11 26l-439 439q-10 10 -25.5 10t-26 -10.5t-10.5 -25.5t11 -26l413 -413l-413 -413q-11 -11 -11 -26t10.5 -25.5t26 -10.5z" />
    <glyph glyph-name="uniE613" unicode="&#xe613;" 
d="M510 635q-104 0 -178 -72.5t-74 -175t74 -175t178.5 -72.5t178.5 72.5t74 175t-74 175t-179 72.5zM219 293v228h-10q40 85 121 138t180.5 53t180.5 -53t121 -138h-10v-228q49 0 83 33.5t34 80.5q0 32 -16 58.5t-44 41.5q-38 107 -133.5 175t-215 68t-215 -68t-133.5 -175
q-28 -15 -44 -41.5t-16 -58.5q0 -47 34 -80.5t83 -33.5zM763 162q-107 -98 -253 -98q-145 0 -251 97q-92 -46 -144 -125t-52 -184h898q0 105 -53 184.5t-145 125.5zM763 162z" />
    <glyph glyph-name="uniE614" unicode="&#xe614;" 
d="M913 894h-801q-42 0 -72.5 -30.5t-30.5 -72.5v-801q0 -42 30.5 -72.5t72.5 -30.5h801q42 0 72.5 30.5t30.5 72.5v801q0 42 -30.5 72.5t-72.5 30.5zM821 608l-2 -1v-3q-16 -113 -104 -189t-202.5 -76t-202.5 76t-104 189l-1 3l-2 1q-24 14 -24 41q0 20 14 34t34 14t34 -14
t14 -34q0 -22 -18 -37l-2 -2l1 -2q15 -96 87.5 -158t169 -62t169 62t87.5 158l1 2l-3 2q-17 15 -17 37q0 20 14 34t34 14t34 -14t14 -34q0 -27 -25 -41z" />
    <glyph glyph-name="uniE615" unicode="&#xe615;" 
d="M957 491.5q-6 18.5 -25 21.5l-271 42l-120 259q-9 18 -29 18q-21 0 -29 -18l-122 -258l-271 -41q-19 -3 -25.5 -21.5t7.5 -32.5l196 -202l-47 -285q-3 -20 13.5 -31.5t33.5 -1.5l242 133l242 -134q7 -4 15 -4h1q13 0 22.5 9.5t9.5 22.5q0 6 -2 11l-45 279l197 201
q13 14 7 32.5z" />
    <glyph glyph-name="uniE616" unicode="&#xe616;" 
d="M767 -64q-8 0 -15 4l-242 134l-242 -133q-17 -10 -33.5 1.5t-13.5 31.5l47 285l-196 202q-14 14 -8 32.5t25 21.5l156 26q13 3 23.5 -5t13 -21t-5.5 -23.5t-21 -13.5l-95 -16l166 -170q11 -12 8 -28l-39 -235l200 110q15 8 31 -1l199 -110l-38 236q-3 16 9 27l164 169
l-225 34q-17 3 -24 18l-100 213l-100 -212q-5 -12 -17.5 -16.5t-24.5 1t-16.5 18t0.5 24.5l130 274q8 18 29 18q20 0 29 -18l120 -259l271 -42q19 -3 25 -21.5t-7 -32.5l-197 -201l46 -285q3 -20 -14 -31q-8 -6 -18 -6z" />
    <glyph glyph-name="uniE617" unicode="&#xe617;" 
d="M96 0q-13 0 -22.5 9.5t-9.5 22.5v448q0 13 9.5 22.5t22.5 9.5t22.5 -9.5t9.5 -22.5v-448q0 -13 -9.5 -22.5t-22.5 -9.5zM864 512h-189q12 28 19.5 83t0.5 107q-5 45 -30 77.5t-63 45.5q-29 10 -56.5 6t-43.5 -21q-12 -12 -22 -35t-15 -41t-14 -52q-17 -70 -28 -89
q-14 -23 -40 -43t-41 -27t-28 -11h-90q-13 0 -22.5 -9.5t-9.5 -22.5v-448q0 -13 9.5 -22.5t22.5 -9.5h87q22 -12 49 -24t83.5 -26t108.5 -14h216q33 0 68.5 13t51 38.5t44 207.5t28.5 220q0 39 -31 68t-65 29zM833 21q-4 -7 -24.5 -14t-40.5 -7h-216q-23 0 -47.5 3.5t-45 9
t-40 12.5t-34 14t-25.5 12.5t-18 8.5l-6 4h-16h-64v384h64q1 0 7 2h1h1h2h1l1 1q12 4 26 10.5t37 19.5t45.5 34t36.5 46q16 26 35 105q21 85 34 99q3 3 12.5 3t24.5 -4q41 -17 48 -70q5 -46 -4 -98.5t-16 -72t-12 -30.5q-7 -16 2 -31q9 -14 27 -14h235q8 0 20 -10.5
t12 -22.5q0 -33 -26.5 -202.5t-36.5 -191.5z" />
    <glyph glyph-name="uniE618" unicode="&#xe618;" 
d="M865 285q-14 0 -24 -10t-10 -24v-297q0 -4 -3.5 -7.5t-7.5 -3.5h-675q-5 0 -8.5 3.5t-3.5 7.5v671q0 5 3.5 8.5t8.5 3.5h409q14 0 24 10t10 24t-10 24t-24 10h-409q-33 0 -56 -23.5t-23 -56.5v-671q0 -32 23 -55.5t56 -23.5h675q32 0 55.5 23.5t23.5 55.5v297
q0 14 -10 24t-24 10zM957 548l-171 169q-10 10 -24.5 10t-24 -10t-9.5 -24t10 -24l114 -113q-81 -3 -152 -26.5t-119 -56t-88 -76t-62 -80t-39 -75t-21.5 -53t-6.5 -22.5q-3 -13 4.5 -25t21.5 -15q4 -1 7 -1q12 0 21.5 7.5t11.5 18.5q3 9 7 23t18.5 47.5t33.5 64t53.5 67.5
t76 64.5t103 47.5t131.5 23l-122 -129q-10 -10 -9.5 -24t10.5 -24q10 -9 23 -9q15 0 25 11l178 186q10 10 9.5 24t-10.5 24z" />
    <glyph glyph-name="uniE619" unicode="&#xe619;" horiz-adv-x="1327" 
d="M1321 407l-77 104q34 26 67 55q9 8 9.5 20t-7.5 21.5t-20 10t-21 -7.5q-228 -200 -470 -246q-192 -36 -386 26q-140 45 -266 136q-63 45 -99 82q-9 9 -21 9.5t-21 -8t-9 -21t8 -21.5q29 -29 79 -68l-69 -89q-8 -10 -6 -22t11 -20q8 -6 18 -6q15 0 24 12l70 91
q101 -69 210 -112l-46 -101q-6 -11 -1.5 -22.5t15.5 -16.5q6 -3 12 -3q19 0 27 17l49 106q115 -36 230 -40v-113q0 -12 8.5 -20.5t21 -8.5t21 8.5t8.5 20.5v113q61 2 122 13q64 12 129 35l51 -107q8 -17 27 -17q7 0 13 3q11 5 15 16.5t-2 22.5l-49 103q102 44 201 114
l77 -105q8 -11 23 -11q10 0 18 5q10 8 11.5 20t-5.5 22z" />
    <glyph glyph-name="uniE61A" unicode="&#xe61a;" 
d="M980 491l-406 321q-26 21 -62 21t-62 -21l-406 -321q-10 -8 -11.5 -21t6.5 -23.5t21 -12t23 6.5l13 11v-388q0 -40 34.5 -68t74.5 -28h640q37 0 60 26.5t23 69.5v386l12 -9q8 -7 20 -7q15 0 25 12q8 11 6.5 24t-11.5 21zM480 32v177q0 14 32 14t32 -14v-177h-64zM864 64
q0 -32 -19 -32h-236h-1v1v176q0 31 -25 54.5t-71 23.5t-71 -23.5t-25 -54.5v-176v-1h1h-212q-15 0 -30 10.5t-15 21.5v438l329 260q9 7 22.5 7t22.5 -7l330 -261v-437z" />
    <glyph glyph-name="uniE61B" unicode="&#xe61b;" 
d="M-57 853zM743 324q-16 4 -21 10.5t-2 11.5l3 6q2 1 3 3.5t4 9.5t5 14t3 17.5t-0.5 20t-6.5 20.5t-14 20q-16 15 -40.5 19.5t-49.5 0.5t-47 -10t-36 -11l-15 -7q-11 -3 -18 -4t-11 0.5t-6 3t-1.5 7.5t1 10.5t2.5 14t3 15.5q0 13 -1.5 24.5t-7 26t-16 23t-26.5 14
t-41.5 3.5t-57.5 -13q-38 -13 -78 -39t-69 -54.5t-53.5 -54.5t-37.5 -43l-12 -18q-36 -47 -54 -94.5t-17 -71.5v-23q7 -53 33 -95t62 -68t84.5 -44.5t93 -26.5t94.5 -11q81 -7 169 12.5t163.5 66.5t106.5 114q19 38 19.5 72.5t-12 56t-31.5 38t-36 24t-31 9.5zM407 -19
q-119 -5 -202.5 46.5t-83.5 131.5q0 78 83 135t203 62.5t203 -40t83 -123.5q0 -79 -84.5 -142.5t-201.5 -69.5zM375 287q-32 -3 -57.5 -15t-40 -26.5t-24.5 -32t-13.5 -34t-4.5 -30t-1 -21.5l1 -9v-4q0 -3 2 -13t6 -18.5t12.5 -18.5t21.5 -16q72 -36 135 -22t102 64
q15 18 20 46t-2 56t-24.5 51t-52.5 35.5t-80 7.5zM335 78q-7 -1 -13 -0.5t-11 2.5t-9.5 4t-8 6t-6.5 7.5t-4.5 9t-1.5 10.5q0 12 6.5 23.5t18 20t26.5 9.5q10 1 19.5 -0.5t16 -5.5t11.5 -9t7 -11.5t2 -14.5q0 -12 -7 -23t-19.5 -18.5t-26.5 -9.5zM429 158q-8 -6 -16 -5.5
t-12 7.5l-2 4q-1 3 -1 5v4q0 4 1 6l2 4q1 2 4 3l3 5q9 7 17 5.5t12 -8.5q3 -5 2.5 -10.5t-3.5 -10.5t-7 -9zM821 388q6 0 11.5 3.5t9 8.5t4.5 10q1 2 1 4q13 126 -88 143q-30 6 -55 1q-8 0 -13.5 -3.5t-9.5 -10t-4 -12.5q0 -11 8 -19t19 -8q86 20 92 -55q2 -19 -2 -35
q0 -11 8 -19t19 -8zM802 700q-49 11 -130 -5q-1 0 -3 -1l-1 -2l-1 -1q-12 -4 -19.5 -14.5t-7.5 -22.5q0 -16 11 -27t26 -11h3q2 0 5.5 1t8 1.5t9.5 2t9 3.5t15 2t27 -2t35 -8.5t38.5 -16.5t39 -27.5t33.5 -40.5q29 -65 11 -126q0 -1 -0.5 -2t-1.5 -5.5t-2 -8.5l-3 -10
q-1 -6 -1 -10q0 -10 5.5 -17t14 -9.5t19.5 -2.5q31 0 36 37q14 43 15.5 82.5t-5.5 69t-21.5 55.5t-33.5 44.5t-42 33t-44.5 23.5t-44.5 15z" />
    <glyph glyph-name="uniE61C" unicode="&#xe61c;" 
d="M753 896h-482q-48 0 -81 -33.5t-33 -80.5v-796q0 -47 33 -80.5t81 -33.5h482q48 0 81 33.5t33 80.5v796q0 47 -33 80.5t-81 33.5zM804 -14q0 -24 -13.5 -37.5t-37.5 -13.5h-482q-24 0 -37.5 13.5t-13.5 37.5v796q0 24 13.5 37.5t37.5 13.5h482q24 0 37.5 -13.5
t13.5 -37.5v-796zM690 704h-342q-11 0 -19.5 -10.5t-8.5 -22.5t8.5 -21.5t19.5 -9.5h342q11 0 19.5 9.5t8.5 21.5t-8.5 22.5t-19.5 10.5zM512 157q-29 0 -50 -21t-21 -50.5t21 -50t50 -20.5t50 20.5t21 50t-21 50.5t-50 21zM490 354l-112 112l-39 -39l151 -151l217 218
l-39 38z" />
    <glyph glyph-name="uniE61D" unicode="&#xe61d;" 
d="M823 137l180 -180q13 -12 13 -29.5t-13 -28.5q-12 -12 -29 -12t-29 12l-182 178q-50 -43 -116 -71q-77 -33 -172 -33q-88 0 -175 33q-86 37 -146 99q-65 66 -99 149l-1 2q-34 84 -34 171q0 89 34 173q33 84 98 149q62 63 145 97.5t176 34.5q91 0 172 -35v0
q85 -36 148 -99l2 -2q63 -63 97 -145v-1q33 -84 33 -172q0 -92 -35 -173q-24 -67 -67 -117v0zM616 770q-71 28 -141 28q-76 0 -144 -28t-119 -79q-50 -51 -81 -121q-28 -70 -28 -141q0 -75 26 -141v-2q33 -74 81 -121q53 -52 120 -81q68 -28 141 -28q74 0 141 28
q73 32 120 80q50 51 81 120q28 68 28 141q0 69 -26 140l-2 2q-32 72 -78 118l-1 2q-45 52 -118 83v0zM279 256q7 -8 7 -18t-7 -17q-8 -7 -18 -7t-17 7q-44 44 -64 96q-22 53 -22 113t22 112q20 53 64 97q7 7 17 7t17.5 -7.5t7.5 -17.5t-7 -17q-31 -31 -54 -79
q-17 -43 -18 -94q0 -47 17 -92v-3q25 -50 55 -80v0z" />
    <glyph glyph-name="uniE61E" unicode="&#xe61e;" 
d="M858 621h-98q-35 88 -101.5 143t-146.5 55t-147.5 -55t-102.5 -143h-96q-19 0 -31.5 -13t-12.5 -32v-589q0 -19 12.5 -32t31.5 -13h692q20 0 32 10t12 29v589q0 19 -13 35t-31 16zM358 691q73 83 154 83q86 0 154 -76q13 -18 42 -77h-394q25 51 44 70zM172 -5v575h78
q0 -4 -3.5 -13.5t-3.5 -12.5q-10 -5 -17.5 -18t-7.5 -27q0 -23 15 -37t36 -14q23 0 37 15.5t14 35.5q0 15 -9 27.5t-23 17.5q0 13 6 26h429q6 -25 6 -26q-25 -9 -25 -45q0 -23 15 -37t36 -14q23 0 37.5 15.5t13.5 35.5q-2 40 -32 45q0 4 -2 13t-3 13h80v-575h-677z" />
    <glyph glyph-name="uniE61F" unicode="&#xe61f;" 
d="M921 263h-818q-15 0 -26 11t-11 26t11 26t26 11h818q16 0 26.5 -11t10.5 -26t-10.5 -26t-26.5 -11zM921 263z" />
    <glyph glyph-name="uniE620" unicode="&#xe620;" 
d="M921 337h-372v372q0 15 -11 26t-26 11t-26 -11t-11 -26v-372h-372q-15 0 -26 -11t-11 -26t11 -26t26 -11h372v-372q0 -16 11 -26.5t26 -10.5t26 10.5t11 26.5v372h372q16 0 26.5 11t10.5 26t-10.5 26t-26.5 11z" />
    <glyph glyph-name="uniE621" unicode="&#xe621;" 
d="M901.5 479.5q-5.5 16.5 -21.5 18.5l-237 37l-106 227q-8 16 -26 16q-17 0 -25 -16l-107 -226l-237 -36q-17 -3 -22.5 -19t6.5 -28l172 -177l-41 -250q-3 -17 11.5 -27.5t29.5 -1.5l212 116l212 -117q6 -3 13 -3h1q12 0 20 8t8 20q0 5 -2 10l-39 244l172 176
q12 12 6.5 28.5z" />
    <glyph glyph-name="uniE622" unicode="&#xe622;" 
d="M217 532l295 -336l294 336l152 12l-446 -510l-447 510z" />
    <glyph glyph-name="uniE623" unicode="&#xe623;" 
d="M515 124q-78 0 -133.5 52t-55.5 125t55.5 124.5t134 51.5t134 -51.5t55.5 -124.5t-55.5 -125t-134.5 -52zM1017 293q-1 -1 -1 -3v-1v-1l-1 -1v-1q0 -1 -1 -1q-67 -144 -204 -225.5t-298 -81.5t-298 81.5t-204 225.5q-1 0 -1 1v2h-1v1v3q0 1 -1 1q-1 6 -1 8.5t1 7.5
q1 1 1 3v2l1 1v1q0 1 1 2q67 144 205 226t299 82t297 -82t203 -226q1 -1 1 -2v-1l1 -1v-1v-1q0 -2 1 -3q1 -5 1 -8t-1 -8zM514 567q-140 0 -260.5 -69t-182.5 -197q62 -128 181.5 -196t259.5 -68t259.5 68t181.5 196q-62 128 -181 197t-258 69z" />
    <glyph glyph-name="uniE624" unicode="&#xe624;" 
d="M512 288q-79 0 -135.5 56.5t-56.5 135.5t56.5 135.5t135.5 56.5t135.5 -56.5t56.5 -135.5t-56.5 -135.5t-135.5 -56.5zM512 608q-53 0 -90.5 -37.5t-37.5 -90.5t37.5 -90.5t90.5 -37.5t90.5 37.5t37.5 90.5t-37.5 90.5t-90.5 37.5zM512 -64q-13 0 -22 9q-10 9 -10 22.5
t9 22.5q39 41 86 97.5t100.5 129.5t89 144.5t35.5 118.5q0 119 -84.5 203.5t-203.5 84.5t-203.5 -84.5t-84.5 -203.5q0 -57 52.5 -151.5t151.5 -215.5q9 -11 7.5 -24t-12 -21.5t-23.5 -7t-21 11.5q-219 268 -219 408q0 146 103 249t249 103t249 -103t103 -249
q0 -53 -34 -127.5t-76.5 -136.5t-98 -130.5t-80 -95.5t-40.5 -44q-9 -10 -23 -10z" />
    <glyph glyph-name="uniE625" unicode="&#xe625;" 
d="M512 832q-185 0 -316.5 -131.5t-131.5 -316.5t131.5 -316.5t316.5 -131.5t316.5 131.5t131.5 316.5t-131.5 316.5t-316.5 131.5zM289 72q7 0 10 1q103 37 158 41q12 1 20.5 10t8.5 22v59q0 15 -11 24q-37 32 -54.5 94.5t-17.5 128.5q0 136 125 136q118 0 118 -136
q0 -66 -26 -132.5t-64 -96.5q-12 -10 -12 -25v-55q0 -13 8.5 -22t20.5 -10q50 -6 148 -45h3l2 -1q-97 -65 -214 -65q-122 0 -223 72zM765 95q0 23 -20 31q-80 31 -137 43v14q48 45 75 121.5t27 147.5q0 96 -47.5 148t-134.5 52q-89 0 -139 -53t-50 -147q0 -23 2.5 -49.5
t10 -66.5t25.5 -79t45 -66v-17q-61 -11 -145 -41q-11 -3 -16.5 -13.5t-3.5 -21.5q-60 53 -94.5 127.5t-34.5 158.5q0 159 112.5 271.5t271.5 112.5t271.5 -112.5t112.5 -271.5q0 -85 -35 -160t-96 -129z" />
    <glyph glyph-name="uniE626" unicode="&#xe626;" 
d="M887 -12q-22 -21 -51.5 -21t-50.5 21l-647 646q-21 21 -21 51t21 51t51 21t51 -21l647 -646q21 -21 21 -51t-21 -51zM886 634l-646 -646q-22 -21 -51.5 -21t-51 21t-21.5 51t22 51l646 646q21 22 51 22t51 -21.5t21 -51t-21 -51.5z" />
    <glyph glyph-name="uniE627" unicode="&#xe627;" 
d="M310 786q-73 0 -124.5 -51.5t-51.5 -124.5t51.5 -125t124.5 -52t125 52t52 125t-52 124.5t-125 51.5zM308 335h-1q-73 0 -124.5 -52t-51.5 -125t51.5 -125t124.5 -52h1q73 0 124.5 52t51.5 125t-51.5 125t-124.5 52zM929 -24l-67 68q42 50 42 114q0 73 -52 125t-125 52v0
q-73 0 -125 -52t-52 -125t52 -125t125 -52q46 0 85 23l70 -73q10 -10 23 -10t23 9q9 9 9.5 22.5t-8.5 23.5zM724 433v0q5 0 10 1q70 3 118.5 54t48.5 121.5t-48.5 121.5t-118.5 55h-10v0q-73 0 -124.5 -51.5t-51.5 -124.5t51.5 -125t124.5 -52z" />
    <glyph glyph-name="uniE628" unicode="&#xe628;" 
d="M353 64q-27 0 -45.5 -18.5t-18.5 -45.5t18.5 -45.5t45 -18.5t45.5 18.5t19 45.5t-19 45.5t-45 18.5zM801 64q-27 0 -45.5 -18.5t-18.5 -45.5t18.5 -45.5t45 -18.5t45.5 18.5t19 45.5t-19 45.5t-45 18.5zM864 96h-520q-34 0 -61 24t-31 59l-54 382l-31 179q-2 11 -11 19.5
t-19 8.5h-41q-13 0 -22.5 9.5t-9.5 22.5t9.5 22.5t22.5 9.5h41q35 0 62 -24t31 -59l31 -178l54 -384q2 -11 10.5 -19t18.5 -8h520q13 0 22.5 -9.5t9.5 -22.5t-9.5 -22.5t-22.5 -9.5zM384 224q-12 0 -21.5 8.5t-10.5 21.5t8 23t22 11l434 32q12 0 21 8t10 19l51 288
q2 18 -9 30q-6 7 -15 7h-554q-13 0 -22.5 9.5t-9.5 22.5t9.5 22.5t22.5 9.5h554q38 0 63 -29q30 -33 24 -81l-51 -289q-4 -33 -30.5 -57t-61.5 -24l-431 -32h-3z" />
    <glyph glyph-name="uniE629" unicode="&#xe629;" 
d="M307 445q-73 0 -124.5 51.5t-51.5 124.5t51.5 124.5t124.5 51.5t124.5 -51.5t51.5 -124.5t-51.5 -124.5t-124.5 -51.5zM306.5 733q-46.5 0 -79 -33t-32.5 -79t32.5 -79t79 -33t79.5 33t33 79t-33 79t-79.5 33zM719.5 445q-72.5 0 -124.5 51.5t-52 124.5t52 124.5
t124.5 51.5t124 -51.5t51.5 -124.5t-51.5 -124.5t-124 -51.5zM719.5 733q-46.5 0 -79.5 -33t-33 -79t33 -79t79.5 -33t79 33t32.5 79t-32.5 79t-79 33zM303.5 -5q-72.5 0 -124 51.5t-51.5 124t51.5 124.5t124 52t124.5 -52t52 -124.5t-52 -124t-124.5 -51.5zM303.5 283
q-46.5 0 -79 -33t-32.5 -79.5t32.5 -79t79 -32.5t79.5 32.5t33 79t-33 79.5t-79.5 33zM923 -11l-66 69q41 48 41 113q0 72 -51.5 124t-124 52t-124.5 -52t-52 -124q0 -67 45.5 -117t112.5 -58h4q12 0 21 8t10 20q2 13 -6 23.5t-21 12.5q-43 5 -72.5 37t-29.5 74q0 46 33 79
t79.5 33t79 -33t32.5 -79q0 -55 -43 -89q-10 -8 -11.5 -21t6.5 -23q4 -6 11 -9q1 -1 1.5 -2.5t1.5 -2.5l77 -79q9 -10 23 -10q13 0 22 9q10 9 10 22t-9 23z" />
    <glyph glyph-name="uniE62A" unicode="&#xe62a;" 
d="M320 512zM256 512q0 26 19 45t45 19t45 -19t19 -45t-19 -45t-45 -19t-45 19t-19 45zM843 0h-662q-48 0 -82.5 34.5t-34.5 82.5v534q0 48 34.5 82.5t82.5 34.5h662q48 0 82.5 -34.5t34.5 -82.5v-534q0 -48 -34.5 -82.5t-82.5 -34.5zM181 704q-22 0 -37.5 -15.5
t-15.5 -37.5v-534q0 -22 15.5 -37.5t37.5 -15.5h662q22 0 37.5 15.5t15.5 37.5v534q0 22 -15.5 37.5t-37.5 15.5h-662zM224 127q-5 0 -10 1q-12 4 -18 16t-3 24q3 9 8.5 23t22 45.5t36 55.5t51 42.5t66.5 17.5t92 -18q24 -7 35.5 -10t35.5 -6t39 2q14 2 22.5 17t20.5 53
q8 26 13.5 40.5t20 39t31 38t45.5 24.5t65 11q13 0 22.5 -9.5t9.5 -22.5t-9.5 -22.5t-22.5 -9.5q-28 0 -46.5 -6.5t-31 -23t-19.5 -32.5t-17 -46q-6 -19 -9.5 -29.5t-12 -27.5t-17 -26.5t-23 -18.5t-32.5 -12q-26 -2 -39.5 -3t-36 3t-33 7t-29.5 9q-50 14 -76 15h-1
q-22 0 -43 -15.5t-36 -39.5t-25 -45t-16 -38q-6 -23 -30 -23z" />
    <glyph glyph-name="uniE62B" unicode="&#xe62b;" 
d="M960 535l-104 246q-8 19 -30 19h-594q-19 0 -28 -16l-133 -243q-11 -18 3 -35l417 -525q10 -13 26 -13q15 0 25 13l414 521q12 15 4 33zM742 736l-226 -182l-208 182h434zM238 713l192 -169h-206q-13 0 -22.5 -9.5t-9.5 -22.5t9.5 -22.5t22.5 -9.5h256v-382l-343 431z
M544 87v393h256q13 0 22.5 9.5t9.5 22.5t-9.5 22.5t-22.5 9.5h-195l210 169l79 -186z" />
    <glyph glyph-name="uniE62C" unicode="&#xe62c;" 
d="M730 665q0 20 14.5 34t34.5 14t34.5 -14t14.5 -34t-14.5 -34.5t-34.5 -14.5t-34.5 14.5t-14.5 34.5zM599 745q0 24 17 41t41.5 17t42 -17t17.5 -41t-17.5 -41t-42 -17t-41.5 17t-17 41zM418 771q0 28 20.5 47.5t49 19.5t48.5 -19.5t20 -47.5t-20 -48t-48.5 -20t-49 20
t-20.5 48zM196 761q0 36 26 61.5t62.5 25.5t62.5 -25.5t26 -61.5t-26 -61.5t-62.5 -25.5t-62.5 25.5t-26 61.5zM610 653h-2h-3h-3h-3h-207h-3h-3h-2h-3h-4q-60 -4 -101 -46.5t-41 -100.5q0 -39 19.5 -72.5t52.5 -53.5l3 -2q3 -2 8 -6t15 -23t13 -44.5t-6 -73.5t-33 -107
q-12 -27 -12 -56q0 -61 44.5 -104.5t107.5 -43.5q54 0 96 34v0q115 92 181.5 225t68.5 284q0 1 0.5 3t0.5 3q0 75 -53.5 128.5t-130.5 55.5z" />
    <glyph glyph-name="uniE62D" unicode="&#xe62d;" 
d="M383 -64h-3q-121 11 -201.5 62t-80.5 116q0 41 38 74.5t93.5 54t123.5 30.5v13q-34 25 -56 60t-33 78t-14.5 83t-3.5 92q0 109 61 171t169 62q106 0 163 -60t57 -173q0 -52 -16.5 -114t-45.5 -116q-6 -12 -19 -15.5t-24.5 2.5t-15.5 18.5t2 24.5q25 47 40 101.5t15 98.5
q0 169 -156 169q-166 0 -166 -169q0 -47 3 -82.5t12 -73t28.5 -66.5t48.5 -48q15 -9 15 -27v-57q0 -12 -8.5 -21.5t-20.5 -10.5q-96 -10 -161 -41.5t-65 -57.5q0 -33 63.5 -69.5t159.5 -44.5q14 -1 22.5 -11.5t7.5 -23.5q-2 -12 -11 -20.5t-21 -8.5zM769 128h-128
q-14 0 -23 9.5t-9 22.5t9 22.5t23 9.5h128q13 0 22.5 -9.5t9.5 -22.5t-9.5 -22.5t-22.5 -9.5zM705 29h-64q-14 0 -23 9t-9 22.5t9 23t23 9.5h64q13 0 22.5 -9.5t9.5 -23t-9.5 -22.5t-22.5 -9zM833 -67h-256q-40 0 -68 28t-28 68v163q0 40 28 68t68 28h256q39 0 67.5 -28
t28.5 -68v-163q0 -40 -28.5 -68t-67.5 -28zM577 224q-13 0 -22.5 -9.5t-9.5 -22.5v-163q0 -14 9.5 -23t22.5 -9h256q13 0 22.5 9t9.5 23v163q0 13 -9.5 22.5t-22.5 9.5h-256z" />
    <glyph glyph-name="uniE62E" unicode="&#xe62e;" horiz-adv-x="1029" 
d="M151 519l-140 -140l140 -139l140 139zM154 343l-42 -22l8 46l-33 33l46 7l21 42l21 -42l47 -7l-34 -33l8 -46zM788 433q-2 1 -5 1h-35v-26h42v18q0 5 -2 7zM696 428v-20h41v26h-34q-7 0 -7 -6zM748 397h42v-26h-42v26zM996 499h-796l121 -120l-111 -111h786q7 0 12 5
t5 12v197q0 7 -5 12t-12 5zM501 317.5q-2 -1.5 -4 -1.5h-106q-7 0 -10 1q-7 3 -9 9q-1 3 -1 10v88q0 7 1 10q2 7 9 9q3 1 10 1h104q2 0 3.5 -1.5t1.5 -3.5t-1.5 -3.5t-3.5 -1.5h-103q-5 0 -7.5 -2.5t-2.5 -7.5v-87q0 -6 2.5 -8t7.5 -2h105q3 0 4.5 -2t1.5 -4t-2 -3.5z
M453 370q9 -6 25 -17q10 -7 12.5 -9.5t2.5 -4.5q0 -3 -2 -5q-1 -1 -3 -1t-4 2q-2 0 -6 5q-11 9 -36 25q-5 -10 -16 -18q-8 -7 -18 -11q-7 -3 -11 -3q-3 0 -4 2q-1 1 -1 3t1.5 3.5t8.5 3.5q9 3 18 11q9 7 14 18h-39q-3 0 -4 2q-2 2 -2 3.5t1 2.5q2 3 5 3h41q1 7 2 21h-26
q-9 -15 -15 -15q-3 0 -4 1.5t-1 3.5q0 3 5 8q6 6 12 19q3 6 5 8h3q1 0 3 -1q1 -1 1 -4t-3 -9h66q2 0 3.5 -1.5t1.5 -4.5q0 -5 -6 -5h-35v-6q0 -10 -1 -15h46q2 0 4 -2q2 -1 2 -4q0 -2 -2 -3q-1 -2 -4 -2h-48zM656 317.5q-2 -1.5 -4 -1.5h-128q-2 0 -3 1q-2 2 -2 4t1.5 4
t3.5 2h60v37h-43q-2 0 -4 2q-1 1 -1 3.5t1.5 4.5t3.5 2h43v31h-36q-15 -29 -23 -29q-2 0 -4 2q-1 1 -1 3q0 3 5 10q13 15 24 48q2 6 5 6q2 0 4 -1q2 -2 2 -5q0 -5 -7 -23h31v29q0 2 2 3q1 2 3.5 2t4.5 -1.5t2 -3.5v-29h49q3 0 5 -1q1 -2 1 -4.5t-2 -3.5q-1 -2 -4 -2h-49v-31
h42q2 0 4 -2t2 -4t-2 -4t-4 -2h-42v-37h56q2 0 4 -2t2 -4t-2 -3.5zM801 328q0 -9 -5 -13q-4 -3 -15 -3q-20 0 -20 8q0 5 5 5q1 0 8 -2h7q5 0 7 1q2 2 2 8v28h-42v-37q0 -4 -2 -6q-2 -1 -3 -1q-3 0 -4.5 2t-1.5 5v37h-41v-1v-1q0 -16 -8 -35q-4 -8 -6 -10t-5 -2q-2 0 -4 3
q-1 1 -1 3t2 6q7 12 9 22.5t2 29.5v52q0 11 3.5 14.5t10.5 3.5h89q13 0 13 -14v-103zM957 391q0 -5 -1 -7q-2 -5 -7 -7q-2 -1 -7 -1h-88l-1 -2q-2 -27 -9 -43q-8 -19 -16 -19q-2 0 -3 2q-2 1 -2 3t1 3q1 2 4 7q6 8 9 21q4 10 5 25t1 27v13q0 6 1 8q2 5 6 7q3 1 8 1h41
q-1 1 -5 7q-2 3 -4 5q-4 4 -4 6t2 4q1 1 3 1q4 0 8 -5q9 -10 9 -15q0 -2 -2 -3h36q5 0 7 -1q5 -2 7 -7q1 -2 1 -8v-22zM938 418h-76q-8 0 -8 -8v-20v-3h84q8 0 8 7v16q0 8 -8 8zM696 397h41v-26h-41v26z" />
    <glyph glyph-name="uniE62F" unicode="&#xe62f;" 
d="M1003 579q-5 -35 -29 -60l-390 -389q-29 -30 -72 -30t-72 30l-390 389q-25 25 -29 60q-1 -7 -1 -13v-532q0 -42 30.5 -72.5t72.5 -30.5h778q42 0 72.5 30.5t30.5 72.5v532q0 6 -1 13zM584 204l408 408q-12 26 -37 41.5t-54 15.5h-778q-29 0 -54 -15.5t-37 -41.5l408 -408
q29 -30 72 -30t72 30z" />
    <glyph glyph-name="uniE630" unicode="&#xe630;" 
d="M893 709h-751q-60 0 -93 -32.5t-33 -93.5v-563q0 -60 33 -92.5t93 -32.5h751q60 0 92.5 32t32.5 93v563q0 61 -32.5 93.5t-92.5 32.5zM956 20q0 -30 -16.5 -46.5t-46.5 -16.5h-751q-30 0 -46.5 16.5t-16.5 46.5v563q0 31 16.5 47t46.5 16h751q30 0 46.5 -16.5t16.5 -46.5
v-563zM393 306q21 12 34 36.5t13 54.5q0 42 -24 71.5t-57.5 29.5t-57.5 -29.5t-24 -71.5q0 -31 14 -56t36 -36q-51 -8 -84 -34t-33 -59q0 -40 45 -67.5t108.5 -27.5t108.5 27.5t45 67.5q0 35 -35.5 61t-88.5 33zM696 191h-71q-15 0 -25.5 -11t-10.5 -26.5t10.5 -26
t25.5 -10.5h71q15 0 25.5 10.5t10.5 26t-10.5 26.5t-25.5 11zM768 487h-143q-15 0 -25.5 -11t-10.5 -26.5t10.5 -26t25.5 -10.5h143q15 0 25.5 10.5t10.5 26t-10.5 26.5t-25.5 11zM696 339h-71q-15 0 -25.5 -11t-10.5 -26.5t10.5 -26t25.5 -10.5h71q15 0 25.5 10.5t10.5 26
t-10.5 26.5t-25.5 11zM696 339z" />
    <glyph glyph-name="uniE631" unicode="&#xe631;" 
d="M454 419q24 -23 58 -23t58 23l324 304q-25 25 -61 25h-642q-36 0 -61 -25zM570 320q-24 -22 -58 -22t-58 22l-349 328v-542q0 -36 25 -61t61 -25h642q36 0 61 25t25 61v542z" />
    <glyph glyph-name="uniE632" unicode="&#xe632;" 
d="M798 766h-53q-11 0 -21 -6.5t-10 -16.5q0 -11 10 -20t21 -9h53q23 0 37.5 -14.5t14.5 -37.5v-603q0 -24 -14.5 -38.5t-37.5 -14.5h-564q-25 0 -45.5 15t-20.5 38v603q0 23 14.5 37.5t37.5 14.5h66q20 0 20 29q0 23 -20 23h-66q-52 0 -78 -29t-26 -77v-596q0 -50 29 -80
t81 -30h566q54 0 82.5 28t28.5 82v596q0 47 -28 76.5t-77 29.5zM286 530q0 -11 8 -19t19 -8h393q11 0 19 8t8 19t-8 19t-19 8h-393q-11 0 -19 -8t-8 -19zM705 412h-392q-11 0 -19 -8t-8 -19t8 -19t19 -8h393q11 0 19 8t8 19q-1 12 -9 19.5t-19 7.5zM705 255h-392
q-11 0 -19 -8t-8 -19t8 -19t19 -8h393q11 0 19 8t8 19q-1 12 -9 19.5t-19 7.5zM419 701h183q15 0 27 13.5t12 32t-12 32t-29 13.5h-181q-17 0 -28.5 -13.5t-11.5 -32t11.5 -32t28.5 -13.5z" />
    <glyph glyph-name="uniE633" unicode="&#xe633;" 
d="M140 460q-31 0 -53 -21.5t-22 -52.5t22 -53t53 -22t52.5 22t21.5 53t-21.5 52.5t-52.5 21.5zM512 460q-31 0 -52.5 -21.5t-21.5 -52.5t21.5 -53t52.5 -22t53 22t22 53t-22 52.5t-53 21.5zM885 460q-31 0 -53 -21.5t-22 -52.5t22 -53t53 -22t52.5 22t21.5 53t-21.5 52.5
t-52.5 21.5z" />
    <glyph glyph-name="uniE634" unicode="&#xe634;" 
d="M618 818h-553v-552h553v552zM512 371h-342v342h342v-342zM512 213h106v-105h-106v105zM696 818h106v-105h-106v105zM65 213h368v-105h-368v105zM696 634h106v-368h-106v368zM249 634h184v-184h-184v184zM696 -50h264v263h-264v-263zM775 134h106v-105h-106v105zM854 371
h106v-105h-106v105zM854 818h106v-368h-106v368zM65 55h105v-105h-105v105zM249 55h395v-105h-395v105z" />
    <glyph glyph-name="uniE635" unicode="&#xe635;" 
d="M782 -72h-545q-39 0 -82.5 40t-43.5 86v515q0 43 36 85t79 42h69v-123h429v123h60q47 0 86 -37.5t39 -89.5v-519q0 -53 -39.5 -87.5t-87.5 -34.5v0zM755 434q0 7 -4.5 11.5t-10.5 4.5h-461q-6 0 -10.5 -4.5t-4.5 -11.5v-30q0 -7 4.5 -11.5t10.5 -4.5h461q6 0 10.5 4.5
t4.5 11.5v30zM755 281q0 6 -4.5 10.5t-10.5 4.5h-461q-6 0 -10.5 -4.5t-4.5 -10.5v-31q0 -6 4.5 -10.5t10.5 -4.5h461q6 0 10.5 4.5t4.5 10.5v31zM755 127q0 7 -4.5 11.5t-10.5 4.5h-461q-6 0 -10.5 -4.5t-4.5 -11.5v-30q0 -7 4.5 -11.5t10.5 -4.5h461q6 0 10.5 4.5
t4.5 11.5v30zM479 634h-123v123h61q0 25 18 43t44 18h61q25 0 43 -18t18 -43h62v-123h-184zM509 767q-16 0 -27 -11.5t-11 -27.5t11 -27t27 -11t27.5 11t11.5 27t-11.5 27.5t-27.5 11.5v0z" />
    <glyph glyph-name="uniE636" unicode="&#xe636;" 
d="M834 728h-644q-35 0 -71.5 -23t-36.5 -52v-15q15 -12 40 -32.5t91 -72t120 -90.5t107 -71.5t72 -32.5q29 0 136 74.5t200 148.5t93 75v16q0 29 -36.5 52t-70.5 23zM82 517v-423q2 -3 5 -6.5t13.5 -12.5t22 -16t30 -12.5t37.5 -5.5h644q28 0 55 13t39 26l13 14v425
q-13 -11 -34 -29.5t-80.5 -64.5t-111.5 -81.5t-110.5 -64.5t-92.5 -29q-100 0 -365 213q-67 54 -65 54z" />
    <glyph glyph-name="uniE637" unicode="&#xe637;" 
d="M841 740v-30l-663 -1v31q0 13 9 22t22 9h600q13 0 22.5 -9t9.5 -22zM192 674h639l121 -130v-8q0 -4 -3.5 -17t-10.5 -24t-22.5 -21.5t-36.5 -14.5q-3 0 -15.5 -0.5t-18 0.5t-17.5 5.5t-19.5 13t-16.5 25.5t-16 41q0 -4 -0.5 -10t-5.5 -20.5t-13 -26t-25 -20.5t-39 -8
q-3 -1 -7.5 -1.5t-18 2t-25.5 10t-24 26t-19 46.5q0 -3 -0.5 -9t-5 -20.5t-13 -26t-27 -21t-44.5 -10.5q-2 0 -7 0.5t-17.5 5t-23.5 12.5t-22 27t-16 45v-9q0 -6 -4.5 -21t-13 -26.5t-27 -22t-43.5 -11.5q-3 0 -8.5 1t-19 6t-24.5 13t-21 25.5t-12 40.5q-1 -4 -2.5 -11
t-9 -24t-19 -28.5t-33.5 -18.5t-50 -1q-2 0 -6.5 1.5t-15 7.5t-18.5 15t-15.5 25.5t-8.5 36.5zM179 396v-375q1 -3 2.5 -7t8.5 -11t16 -6h611q3 0 7.5 1.5t12 8t6.5 16.5v375q-4 -1 -11 0t-23 8.5t-25 21.5v-198h-544v194q-20 -24 -61 -28z" />
    <glyph glyph-name="uniE638" unicode="&#xe638;" 
d="M842 2h-656q-46 0 -78 32.5t-32 77.5v491l221 -246l-113 -113q-15 -15 -22.5 -30t4.5 -22l10 -3t15 -3.5t13 0.5t13 6l116 116l4 4l49 -54q4 -4 13 -10t42 -16.5t73 -10.5t72 9.5t44 18.5l12 9l46 51v-1h1l112 -113q10 -10 24.5 -10t25 10.5t10.5 16t-10 15.5l-113 112
q-6 6 -15 9l229 254v-490q0 -45 -32 -77.5t-78 -32.5zM604 312q-4 -4 -11.5 -10t-31 -16t-47.5 -10q-25 0 -47.5 9.5t-32.5 18.5l-11 10l-340 372l-3 2q10 35 39 58t67 23h656q38 0 67 -23t39 -59l-1 -1t-2 -1z" />
    <glyph glyph-name="uniE639" unicode="&#xe639;" 
d="M365 127q17 0 32.5 -6.5t27 -17.5t18 -26.5t6.5 -33t-6.5 -32.5t-18 -26.5t-27 -18.5t-32.5 -7q-18 0 -33.5 7t-27 18.5t-18 26.5t-6.5 32.5t6.5 33t18 26.5t27 17.5t33.5 6.5zM742 125q17 0 33 -6t27.5 -17.5t18 -27t6.5 -32.5t-6.5 -32.5t-18 -27t-27.5 -18t-33 -6.5
t-32.5 6.5t-27 18t-18 27t-6.5 32.5t6.5 32.5t18 27t27 17.5t32.5 6zM894 640q26 0 40 -6.5t20 -16.5t5.5 -21.5t-3.5 -19.5t-12 -33.5t-19.5 -56t-20.5 -60t-17 -47.5q-12 -36 -29.5 -50t-43.5 -14h-32h-58h-76h-85h-225l12 -82h458q44 0 44 -37q0 -18 -8.5 -31t-34.5 -13
h-43h-84h-105h-106h-88h-49q-18 0 -30.5 8t-20.5 21t-13 28.5t-8 29.5q-1 5 -5 26t-10 52q-7 40 -13 70q-7 36 -14 77q-17 92 -39 205h-68q-14 0 -23 6.5t-15 16t-8 20.5t-2 20q0 18 12 30t33 12h19h19h23h31q18 0 29 -5.5t17 -13.5t9 -18q3 -9 4 -15q2 -7 4 -20
q2 -12 4 -27q2 -17 5 -35h620zM826 669h-331l119 120q21 21 46 21.5t46 -20.5zM826 669z" />
    <glyph glyph-name="uniE63A" unicode="&#xe63a;" 
d="M770 815h-516q-46 0 -79 -33t-33 -80v-636q0 -47 33 -80t79 -33h516q46 0 79 33t33 80v636q0 47 -33 80t-79 33zM379 774q0 12 8 20t20 8t20 -8t8 -20v-34q2 -8 19 -8h97q16 0 19 8v34q0 12 8 20t19.5 8t20 -8t8.5 -20v-35q0 -26 -22 -44.5t-53 -18.5h-97
q-32 0 -53.5 18.5t-21.5 44.5v35zM696 185h-368q-11 0 -19.5 8.5t-8.5 20t8.5 20t19.5 8.5h368q11 0 19.5 -8.5t8.5 -20t-8.5 -20t-19.5 -8.5zM696 400h-368q-11 0 -19.5 8t-8.5 20t8.5 20t19.5 8h368q11 0 19.5 -8t8.5 -20t-8.5 -20t-19.5 -8z" />
    <glyph glyph-name="uniE63B" unicode="&#xe63b;" horiz-adv-x="1025" 
d="M512 -128q-139 0 -257 68.5t-186.5 186.5t-68.5 257t68.5 257t186.5 186.5t257 68.5q104 0 199 -40.5t163.5 -109t109 -163.5t40.5 -199t-40.5 -199t-109 -163.5t-163.5 -109t-199 -40.5zM723 535q13 12 13 30t-12.5 30.5t-30.5 12.5t-30 -13l-151 -151l-151 151
q-12 13 -30 13t-30.5 -12.5t-12.5 -30.5t13 -30l151 -151l-151 -151q-13 -12 -13 -30t12.5 -30.5t30.5 -12.5t30 13l151 151l151 -151q12 -13 30 -13t30.5 12.5t12.5 30.5t-13 30l-151 151z" />
    <glyph glyph-name="uniE63C" unicode="&#xe63c;" 
d="M747 708q41 -30 73 -67t55 -80t35 -91t12 -97q0 -85 -32.5 -159.5t-88 -130t-130 -88t-159.5 -32.5q-84 0 -159 32.5t-130.5 88t-87.5 130t-32 159.5q0 48 11.5 95t32.5 89t52 78.5t69 65.5q21 15 44 11.5t38 -23t11 -43t-23 -38.5q-58 -42 -88.5 -103.5t-30.5 -131.5
q0 -61 23 -114.5t62.5 -93t93 -63t114 -23.5t114 23.5t93.5 63t63.5 93t23.5 114.5q0 71 -33 134.5t-93 105.5q-20 13 -24 37t10 44q13 19 37 23t44 -9zM512 370q-24 0 -41 17t-17 41v347q0 24 17 41.5t41 17.5q25 0 41.5 -17.5t16.5 -41.5v-347q0 -24 -16.5 -41t-41.5 -17z
" />
    <glyph glyph-name="uniE63D" unicode="&#xe63d;" 
d="M830 808h-636q-44 0 -75 -31t-31 -75v-477q0 -44 31 -75t75 -31h137l144 -144q15 -15 37 -15t38 15l143 144h138q43 0 74.5 31t31.5 75v477q0 44 -31.5 75t-75.5 31zM830 278q0 -22 -15.5 -37.5t-37.5 -15.5h-106q-22 0 -37 -16l-122 -121l-122 121q-15 16 -37 16h-106
q-22 0 -37.5 15.5t-15.5 37.5v371q0 22 15.5 37.5t37.5 15.5h530q22 0 37.5 -15.5t15.5 -37.5v-371zM512 649q-22 0 -37.5 -15.5t-15.5 -37.5v-106q0 -22 15.5 -37.5t37.5 -15.5t37.5 15.5t15.5 37.5v106q0 22 -15.5 37.5t-37.5 15.5zM512 384q-22 0 -37.5 -15.5
t-15.5 -37.5t15.5 -37.5t37.5 -15.5t37.5 15.5t15.5 37.5t-15.5 37.5t-37.5 15.5zM512 384z" />
    <glyph glyph-name="uniE63E" unicode="&#xe63e;" 
d="M986 306q-8 11 -21 13t-24 -6l-57 -41q15 55 15 111q0 113 -55.5 209t-152 152t-209.5 56t-209 -56t-152 -152t-56 -209t56 -209t152 -152t209 -56q111 0 207 55q6 1 10 4q27 16 51 36q10 8 11.5 21t-7 23.5t-21.5 11.5t-24 -7q-17 -14 -40 -28l-6 -2q-83 -50 -181 -50
q-95 0 -176.5 47.5t-129 128.5t-47.5 177t47.5 177t129 128.5t177 47.5t177 -47.5t128.5 -128.5t47 -177q0 -66 -24 -128l-45 109q-5 12 -17.5 17t-24.5 0t-17 -17.5t0 -24.5l72 -173q0 -1 3 -5v-1h1v-1q4 -5 10 -8l2 -1q6 -3 11 -3q0 -1 0.5 -0.5t1 0.5t0.5 -0.5t1 -0.5h1
q0 1 1 1q3 0 7 1h1q4 2 7 4h1l152 109q10 8 12.5 21t-5.5 24zM607 522q9 9 9.5 22t-9 22.5t-22.5 10t-23 -9.5l-80 -77l-79 77q-10 10 -23 9.5t-22.5 -10t-9 -22.5t9.5 -22l90 -87v-19h-64q-13 0 -22.5 -9.5t-9.5 -22.5t9.5 -22.5t22.5 -9.5h64v-32h-64q-13 0 -22.5 -9.5
t-9.5 -22.5t9.5 -22.5t22.5 -9.5h64v-67q0 -14 9.5 -23t22.5 -9t22.5 9t9.5 23v67h64q13 0 22.5 9.5t9.5 22.5t-9.5 22.5t-22.5 9.5h-64v32h64q13 0 22.5 9.5t9.5 22.5t-9.5 22.5t-22.5 9.5h-64v14z" />
    <glyph glyph-name="uniE63F" unicode="&#xe63f;" 
d="M945 204h-54q-13 -48 -37 -90l50 -50q24 -24 24 -58t-24 -58l-29 -29q-24 -24 -58 -24t-58 24l-50 50q-43 -24 -90 -37v-52q0 -34 -24 -58t-58 -24h-41q-34 0 -58 24t-24 58v52q-48 13 -90 37l-50 -50q-24 -24 -58 -24t-58 24l-29 29q-24 24 -24 58t24 58l50 50
q-24 42 -37 90h-54q-34 0 -58 24t-24 58v40q0 34 24 58t58 24h53q13 48 36 90l-48 48q-24 24 -24 58t24 58l29 29q24 24 58 24t58 -24l47 -47q44 25 93 38v55q0 34 24 58t58 24h41q34 0 58 -24t24 -58v-55q49 -13 93 -38l47 47q24 24 58 24t58 -24l29 -29q24 -24 24 -58
t-24 -58l-48 -48q23 -42 36 -90h53q34 0 58 -24t24 -58v-40q0 -34 -24 -58t-58 -24zM517 565q-108 0 -184.5 -76t-76.5 -184t76.5 -184.5t184.5 -76.5t184 76.5t76 184.5t-76 184t-184 76zM516.5 205q-42.5 0 -72.5 30t-30 72.5t30 72.5t72.5 30t72.5 -30t30 -72.5
t-30 -72.5t-72.5 -30z" />
    <glyph glyph-name="uniE640" unicode="&#xe640;" 
d="M515.5 795q-113.5 0 -209 -55.5t-151.5 -151.5t-56 -209t56 -209t151.5 -152t209 -56t209.5 56t151.5 152t55.5 209t-55.5 209t-151.5 151.5t-209.5 55.5zM517 39q-28 0 -47.5 20t-19.5 49t19.5 49t47.5 20t47.5 -20t19.5 -49t-19.5 -49t-47.5 -20zM705 473
q-14 -27 -33 -46q-16 -16 -69 -65q-15 -14 -22 -23q-8 -10 -12 -18q-5 -8 -7 -16q-2 -7 -6 -29q-8 -43 -48 -43q-21 0 -35.5 14t-14.5 42q0 35 10.5 60.5t28.5 45.5q17 20 46 46q28 25 38 35q11 12 19 27q8 14 8 32q0 33 -24 56t-62 23q-45 0 -65 -23q-22 -23 -36 -68
q-13 -48 -52 -48q-22 0 -37.5 16.5t-15.5 36.5q0 39 24.5 80t71.5 67.5t110 26.5q59 0 103 -22q45 -22 69 -61q25 -38 25 -84q-1 -35 -14 -62z" />
    <glyph glyph-name="uniE641" unicode="&#xe641;" 
d="M258 385q0 -5 1.5 -11t3 -10.5t5 -10t6.5 -8.5l7 -9q5 -6 7 -7.5t8 -7.5l7 -7q16 -16 33 -37.5t25 -30.5l184 -185q9 -10 25.5 -31.5t32.5 -37.5q59 -58 64 -63t16.5 -18t16 -17t16 -9t27.5 -6q11 24 12.5 44t-3 35t-22.5 37t-34.5 37.5t-52 48.5t-61.5 59l-229 245
q15 23 83.5 93t140 140t129.5 136t58 85q0 6 -2.5 14.5t-4.5 12.5t-8 14.5t-6 11.5q-13 -2 -21 -3.5t-15 -6.5t-10.5 -8t-11.5 -12t-13 -15l-306 -317q-4 -4 -29.5 -27.5t-38.5 -37.5t-26.5 -37t-13.5 -43z" />
    <glyph glyph-name="uniE642" unicode="&#xe642;" 
d="M127 421l225 -179l559 515q1 2 4 4t11 6.5t16 6.5t19 0t20 -9q6 -5 9 -13t0.5 -22.5t-13.5 -31.5l-584 -683q-2 -3 -5 -6.5t-14 -11t-21.5 -9.5t-26.5 4t-31 23l-252 340q-1 2 -3 5.5t-5 13t-3.5 18t4 19t15.5 18.5q37 27 76 -8z" />
    <glyph glyph-name="uniE643" unicode="&#xe643;" 
d="M568 299l442 442q12 11 12 27.5t-11.5 27.5t-27.5 11t-28 -11l-442 -442l-442 442q-11 11 -27.5 11t-27.5 -11t-11 -27.5t11 -27.5l442 -442l-442 -442q-11 -12 -11 -28t11 -27.5t27.5 -11.5t27.5 12l442 442l442 -442q12 -12 28 -12t27.5 11.5t11.5 27.5t-12 28z" />
    <glyph glyph-name="uniE644" unicode="&#xe644;" 
d="M278 718l-164 -96l398 -228l170 95zM909 616l-395 234q-5 3 -11 0l-185 -109l400 -231zM494 -93l-398 231q-5 3 -5 10v448l403 -233v-456zM529 -96l398 219q5 3 5 9v457l-403 -226v-459z" />
    <glyph glyph-name="uniE645" unicode="&#xe645;" 
d="M865 349h-628l253 252q9 10 9 23.5t-9.5 23t-22.5 9.5t-23 -10l-307 -307l-1 -1q-2 -3 -3 -4t-2 -3l-1 -3q-1 -1 -2 -3v-2v-1q-1 -3 -1 -6v0q0 -4 1 -6v-1v-1q0 -1 1 -1q0 -3 0.5 -3.5t1.5 -3.5l1 -1q0 -1 1 -1q1 -3 4 -5l307 -308q10 -9 23 -9t22.5 9.5t9.5 23t-9 22.5
l-253 252h628q13 0 22.5 9.5t9.5 23t-9.5 23t-22.5 9.5z" />
    <glyph glyph-name="uniE646" unicode="&#xe646;" 
d="M945 526q1 7 -4 12q-2 6 -6 8l-416 300q-5 4 -10 4l-237 4q-12 1 -16 -11.5t6 -19.5l108 -78l-51 -38l-6 -2l-227 -167q-7 -5 -7 -14l-1 -1v-292l7 -14l417 -300q2 -1 3 -2q3 -1 8 -1t9 3l417 300q7 5 7 14v292q0 1 -0.5 1.5t-0.5 1.5zM440 60l-291 210v136l291 -210
v-136zM711 384l-389 280l72 55l290 -208l217 9z" />
    <glyph glyph-name="uniE647" unicode="&#xe647;" 
d="M512 834q-98 0 -180.5 -48t-131 -131t-48.5 -181q0 -152 204 -410q44 -56 78 -92q33 -38 78.5 -38t77.5 38q11 12 30 34t68 85t86 121.5t67.5 132.5t30.5 129q0 98 -48.5 181t-131 131t-180.5 48zM512 319q-69 0 -117.5 49t-48.5 118t48.5 117.5t117.5 48.5t117.5 -48.5
t48.5 -117.5t-48.5 -118t-117.5 -49z" />
    <glyph glyph-name="uniE648" unicode="&#xe648;" 
d="M877 474v5q-1 16 -14 25l-42 29l26 45q8 14 1 28q-39 93 -121 154q-13 9 -29 5l-48 -15l-19 48q-6 14 -21 19q-49 13 -98 13t-98 -13q-15 -5 -21 -19l-19 -48l-48 15q-16 4 -29 -5q-82 -61 -122 -154q-6 -15 2 -28l26 -45l-42 -29q-13 -9 -14 -25v-4q-1 -7 -1 -13
q0 -94 45 -175q7 -14 23 -17l50 -7l-4 -51q-1 -16 11 -26q76 -68 177 -86q3 -1 6 -1q12 0 21 9l37 34l37 -34q11 -11 27 -8q101 18 177 86q12 10 11 26l-4 51l50 7q16 3 23 17q45 81 45 175q-1 2 -1 12zM512 290q-72 0 -123.5 51t-51.5 123.5t51.5 124t123.5 51.5
t123.5 -51.5t51.5 -123.5t-51.5 -123.5t-123.5 -51.5zM761 148q-79 -63 -177 -81q-6 -1 -12 0l28 -105q7 -20 27 -23q3 -1 6 -1q16 0 27 13l50 57l93 -23q23 -6 37 12.5t-1 40.5zM453 67h-6q-102 18 -183 86l-81 -117q-12 -20 1.5 -38.5t36.5 -12.5l92 23l49 -57
q12 -13 27 -13q4 0 7 1q21 4 27 25l31 103h-1zM453 67z" />
    <glyph glyph-name="uniE649" unicode="&#xe649;" 
d="M952 150h-72q-6 52 -46 87.5t-93.5 35.5t-93 -35.5t-46.5 -87.5h-54q-22 0 -37.5 15.5t-15.5 37.5v475q0 22 15.5 37.5t37.5 15.5h405q22 0 37.5 -15.5t15.5 -37.5v-475q0 -22 -15.5 -37.5t-37.5 -15.5v0zM406 150h-36q-7 52 -46.5 87.5t-93 35.5t-93.5 -35.5t-46 -87.5
h-37q-14 0 -24.5 10.5t-10.5 24.5v194q0 34 32 93.5t75 106t69 46.5h211q15 0 25.5 -10t10.5 -25v-405q0 -14 -10.5 -24.5t-25.5 -10.5v0zM336 537q-56 3 -122 0q-14 0 -39.5 -28t-46.5 -66.5t-21 -63.5v-18h229v176zM230 220q37 0 62.5 -25.5t25.5 -62t-25.5 -62.5t-62 -26
t-62.5 26t-26 62.5t26 62t62 25.5v0zM745 220q39 0 66 -27t27 -65t-27 -65t-65.5 -27t-65.5 27t-27 65t27 65t65 27v0zM745 220z" />
    <glyph glyph-name="uniE64A" unicode="&#xe64a;" 
d="M512 -150q-19 0 -32 13t-13 32v810q0 19 13 32t32 13t32 -13t13 -32v-810q0 -19 -13 -32t-32 -13zM962 300q0 -19 -13 -32t-32 -13h-810q-19 0 -32 13t-13 32t13 32t32 13h810q19 0 32 -13t13 -32z" />
    <glyph glyph-name="uniE64B" unicode="&#xe64b;" 
d="M512 832q-91 0 -174 -35.5t-143 -95.5t-95.5 -143t-35.5 -174t35.5 -174t95.5 -143t143 -95.5t174 -35.5t174 35.5t143 95.5t95.5 143t35.5 174t-35.5 174t-95.5 143t-143 95.5t-174 35.5zM527.5 25q-26.5 0 -45.5 19t-19 45.5t19 45t45.5 18.5t45 -18.5t18.5 -45
t-18.5 -45.5t-45 -19zM738 466q-11 -48 -44 -84.5t-83 -56.5q-21 -9 -25 -13q0 -3 2 -24q3 -27 -13.5 -47.5t-43.5 -23.5h-7q-24 0 -42.5 16.5t-20.5 40.5q-7 64 14 101q23 41 88 68q42 17 51 53q9 38 -22 68q-21 20 -52.5 28t-58.5 0q-33 -10 -53.5 -38t-19.5 -61
q1 -26 -17 -45.5t-44 -20.5q-27 -2 -46.5 16t-20.5 45q-3 77 42.5 140.5t121.5 85.5q59 18 124.5 2.5t111.5 -59.5q41 -39 56 -88.5t2 -102.5z" />
    <glyph glyph-name="uniE64C" unicode="&#xe64c;" 
d="M516 126q6 0 13 1q32 3 57 24t36 52q1 5 -4 7.5t-8 -2.5q-2 -3 -6.5 -8t-26 -15t-51.5 -14q-15 -2 -28 -2q-47 0 -68 18q-4 4 -8 0.5t-1 -8.5q15 -25 40.5 -39t54.5 -14zM872 537h-1q-30 127 -132 210.5t-234 83.5q-136 0 -239.5 -87.5t-129.5 -220.5q-24 -5 -40.5 -24.5
t-16.5 -45.5v-139q0 -29 20.5 -50t49.5 -21q33 0 54 27q23 -62 68 -109.5t105 -73.5l4 6q2 3 3.5 3t3.5 -2q-24 18 -57 68.5t-42 114.5q-5 32 15 60t49 33q28 6 88.5 18t92.5 18q57 10 81 63q9 19 12 49q1 6 8 6q3 0 6 -3l1 1q71 -102 79 -193q6 -78 -6.5 -127t-61.5 -94
q-2 -2 -2 -4q0 -3 3 -5l1 -1h2h1l2 2h1q54 30 94 78t59 107q16 -24 45 -30q-22 -101 -105 -163t-198 -72q-7 17 -23 27.5t-35 10.5q-25 0 -43.5 -17.5t-18.5 -42.5t18 -43t44 -18q21 0 37 12t22 30q133 11 228 86t116 194q20 8 32 26t12 40v141q0 29 -21 50t-51 21zM808 496
q-35 94 -117.5 153t-185.5 59q-102 0 -184.5 -58.5t-117.5 -151.5l-8 8q20 113 107.5 188t202.5 75t202 -74.5t108 -186.5q-5 -6 -7 -12zM376 87z" />
    <glyph glyph-name="uniE64D" unicode="&#xe64d;" 
d="M768 721q45 -32 80 -72t60 -87t38 -99.5t13 -106.5q0 -93 -35.5 -174.5t-96 -141.5t-142 -95.5t-174.5 -35.5q-91 0 -172.5 35.5t-142.5 95.5t-96 142q-35 81 -35 174q0 53 12.5 104t35.5 97t57 85.5t76 71.5q22 16 47.5 12t41.5 -24.5t12 -47t-25 -41.5
q-63 -46 -96.5 -113t-33.5 -144q0 -66 25 -124.5t68.5 -102t102 -68.5t124 -25t124 25t102.5 69q43 43 68.5 101.5t25.5 124.5q0 78 -36 147.5t-101 114.5q-22 15 -26.5 40.5t10.5 47.5q15 21 41 25.5t48 -10.5v0zM511 353q-25 0 -43.5 18.5t-18.5 44.5v379q0 26 18.5 45
t43.5 19q27 0 45.5 -19t18.5 -45v-379q0 -26 -18.5 -44.5t-45.5 -18.5v0zM511 353z" />
    <glyph glyph-name="uniE64E" unicode="&#xe64e;" 
d="M842 804h-659q-36 0 -60.5 -25t-24.5 -60v-659q0 -36 24.5 -60.5t60.5 -24.5h659q35 0 60 24.5t25 60.5v659q0 35 -25 60t-60 25zM767 568l-2 -1v-2q-14 -93 -86 -155.5t-166.5 -62.5t-167 62.5t-85.5 155.5l-1 2l-1 1q-20 12 -20 34q0 17 11.5 28.5t28 11.5t28 -11.5
t11.5 -28.5q0 -18 -15 -30l-2 -1l1 -3q12 -78 72 -129t139.5 -51t139 51t72.5 129v2l-2 2q-14 12 -14 30q0 17 11.5 28.5t28 11.5t28 -11.5t11.5 -28.5q0 -22 -20 -34z" />
    <glyph glyph-name="uniE64F" unicode="&#xe64f;" 
d="M511 243zM343 243.5q0 69.5 49 118.5t118.5 49t118.5 -49t49 -118.5t-49 -118.5t-118.5 -49t-118.5 49t-49 118.5zM891 545h-161l-8 35q-6 27 -30 46.5t-52 19.5h-255q-28 0 -52 -19.5t-30 -46.5l-8 -35h-51q-2 10 -20 16.5t-42 6.5q-26 0 -44.5 -7t-18.5 -17
q-24 -4 -39.5 -23t-15.5 -43v-457q0 -28 19.5 -47.5t47.5 -19.5h760q27 0 47 19.5t20 47.5v457q0 28 -20 47.5t-47 19.5zM510.5 20q-92.5 0 -158 65.5t-65.5 158t65.5 158t158 65.5t158 -65.5t65.5 -158t-65.5 -158t-158 -65.5zM831 392q-14 0 -23.5 10t-9.5 23.5t9.5 23.5
t23.5 10t24 -10t10 -23.5t-10 -23.5t-24 -10z" />
    <glyph glyph-name="uniE650" unicode="&#xe650;" 
d="M3 361q0 78 48 141.5t121 84.5q41 103 134.5 168t208.5 65t206.5 -64.5t132.5 -168.5q76 -22 123 -84.5t47 -141.5q0 -98 -69.5 -167.5t-169.5 -69.5q-19 0 -33.5 14.5t-14.5 33.5q0 21 14 34t34 13q60 0 102 41.5t42 100.5q0 66 -50 106l-8 8q-3 3 -11 8q-1 2 -5.5 3.5
t-5.5 2.5h-3q-1 2 -4 3t-4 2h-3q-1 0 -4 1.5t-5 1.5q-5 0 -5 3h-8q-6 0 -9 3h-5h-14h-3q-6 21 -6 25q-2 0 -2 5q-2 3 -3.5 9t-2.5 8q0 1 -1.5 3t-1.5 3q-2 6 -8 17v5q-2 3 -6 8.5t-5 8.5q-36 59 -97.5 95t-133.5 36q-74 0 -136 -36t-98 -95l-8 -17q0 -1 -1 -2t-1 -2l-1 -1
l-9 -17v-6l-8 -17v-5q-6 -18 -6 -25h-5h-14h-6q-2 -3 -8 -3h-5q-3 -3 -4 -3h-2t-4.5 -1.5t-3.5 -1.5h-6q-1 -1 -4 -2t-4 -3h-3q-1 -1 -4 -2.5t-4 -3.5h-3l-9 -8q-2 -1 -11 -8q-47 -38 -47 -106q0 -59 41.5 -100.5t100.5 -41.5q22 0 36 -13t14 -34q0 -20 -14.5 -34t-35.5 -14
q-98 0 -168.5 69.5t-70.5 167.5zM323 202q0 15 11 34l145 158q14 14 36 14q18 0 36 -14l142 -158q14 -14 14 -34q0 -19 -14.5 -33t-35.5 -14q-17 0 -34 17l-61 66v-239q0 -21 -13.5 -34t-33.5 -13q-21 0 -34 13t-13 34v239l-61 -66q-17 -17 -37 -17q-19 0 -33 14t-14 33z
" />
    <glyph glyph-name="uniE651" unicode="&#xe651;" 
d="M896 768v-832h-832v832h832zM960 832h-960v-960h960v960zM128 704h704v-128h-704v128zM128 512h192v-128h-192v128zM128 320h192v-128h-192v128zM128 128h192v-128h-192v128zM384 512h192v-128h-192v128zM384 320h192v-128h-192v128zM384 128h192v-128h-192v128zM640 512
h192v-128h-192v128zM640 320h192v-128h-192v128zM640 128h192v-128h-192v128z" />
    <glyph glyph-name="uniE652" unicode="&#xe652;" 
d="M960 236h-128q-26 0 -45 19t-19 45t19 45t45 19h128q26 0 45 -19t19 -45t-19 -45t-45 -19zM784 481q-19 -19 -45.5 -19t-45.5 19t-19 45.5t19 45.5l91 90q18 19 44.5 19t45.5 -19t19 -45.5t-19 -44.5zM512 -212q-27 0 -45.5 18.5t-18.5 45.5v128q0 26 19 45t45 19t45 -19
t19 -45v-128q0 -27 -18.5 -45.5t-45.5 -18.5zM512 556q-27 0 -45.5 18.5t-18.5 45.5v128q0 27 18.5 45.5t45.5 18.5t45.5 -18.5t18.5 -45.5v-128q0 -27 -18.5 -45.5t-45.5 -18.5zM240 -62q-18 -19 -44.5 -19t-45.5 19t-19 45.5t19 44.5l90 91q19 19 45.5 19t45.5 -19
t19 -45.5t-19 -45.5zM240 481l-90 91q-19 18 -19 44.5t19 45.5t45.5 19t44.5 -19l91 -90q19 -19 19 -45.5t-19 -45.5t-45.5 -19t-45.5 19zM256 300q0 -26 -19 -45t-45 -19h-128q-26 0 -45 19t-19 45t19 45t45 19h128q26 0 45 -19t19 -45zM784 119l90 -91q19 -18 19 -44.5
t-19 -45.5t-45.5 -19t-44.5 19l-91 90q-19 19 -19 45.5t19 45.5t45.5 19t45.5 -19z" />
    <glyph glyph-name="uniE653" unicode="&#xe653;" 
d="M885 473h-238q19 69 25.5 126.5t2.5 93.5t-14.5 63.5t-23 41t-25.5 21.5t-20 10t-9 2q-22 0 -35.5 -8.5t-16 -18.5t-3.5 -21.5t-2 -12.5q0 -47 -18 -94.5t-44 -82.5t-52 -63t-44 -43l-19 -14v-472q0 -22 17.5 -37t37 -21t34.5 -6h357q10 0 19.5 9t16.5 22t13 26t9 22
l3 10q40 133 62 230.5t24 128.5l3 31q0 17 -6.5 29.5t-15 17.5t-17.5 7.5t-15 2.5h-6v0zM252 473h-143q-13 0 -20.5 -7.5t-8.5 -14.5l-1 -7l30 -476q0 -14 7.5 -21.5t15.5 -8.5l7 -1h123q12 0 18.5 5t6.5 10l1 5v480q0 16 -9 25t-18 10l-9 1v0zM252 473z" />
    <glyph glyph-name="uniE654" unicode="&#xe654;" 
d="M544 161l284 450q9 14 1 29t-24 15h-569q-17 0 -25 -15q-3 -6 -3 -14t4 -15l284 -450q9 -13 24.5 -13t23.5 13z" />
    <glyph glyph-name="uniE655" unicode="&#xe655;" 
d="M142.5 -97q-10.5 0 -18 7.5t-7.5 18t7 18.5l737 736q8 8 18.5 8t18 -7.5t7.5 -18t-8 -18.5l-737 -737q-7 -7 -17.5 -7zM879 -97q-11 0 -18 7l-737 737q-8 8 -8 18.5t7.5 18t18 7.5t18.5 -8l737 -736q8 -8 8 -18.5t-7.5 -18t-18.5 -7.5z" />
    <glyph glyph-name="uniE656" unicode="&#xe656;" 
d="M778 595l-379 -380h34l-172 173l-34 -35l172 -172l17 -17l17 17l380 379zM512 -104q99 0 189.5 39t155.5 104t104 155.5t39 189.5t-39 189.5t-104 155.5t-155.5 104t-189.5 39t-189.5 -39t-155.5 -104t-104 -155.5t-39 -189.5t39 -189.5t104 -155.5t155.5 -104t189.5 -39
zM512 -55q-89 0 -170.5 35t-140 93.5t-93.5 140t-35 170.5t35 170.5t93.5 140t140 93.5t170.5 35t170.5 -35t140 -93.5t93.5 -140t35 -170.5t-35 -170.5t-93.5 -140t-140 -93.5t-170.5 -35z" />
    <glyph glyph-name="uniE657" unicode="&#xe657;" 
d="M512 831q-91 0 -174 -35.5t-142.5 -95t-95 -142.5t-35.5 -174t35.5 -174t95 -142.5t142.5 -95t174 -35.5t174 35.5t142.5 95t95 142.5t35.5 174t-35.5 174t-95 142.5t-142.5 95t-174 35.5zM792 532l-359 -360q-4 -4 -11 -5q-11 -3 -19 5l-185 185q-6 6 -6 14t6 14l23 23
q5 6 13 6t14 -6l150 -150l324 324q5 6 13 5.5t14 -6.5l23 -22q6 -6 6 -14t-6 -13z" />
    <glyph glyph-name="uniE658" unicode="&#xe658;" 
d="M957 341q0 8 -2 11q0 5 -1 10q-1 0 -1 1q-1 3 -2 4q-61 135 -182 217.5t-256.5 82.5t-257 -82.5t-182.5 -215.5l-2 -6v-1q-1 -3 -2 -7l-1 -11q-1 -3 0 -6q0 -6 1 -7q0 -2 1 -6q0 -3 1 -6l2 -4q61 -134 182.5 -217t256.5 -83t256.5 82.5t181.5 215.5q2 3 3 7q0 1 1 1l1 8
q2 7 2 12zM897 339q0 -1 -0.5 -1t-0.5 -1q-54 -118 -160 -190t-224 -72t-223.5 72t-160.5 191l-1 1v1v2v2h1v1q54 118 160 190.5t224 72.5t224 -72.5t160 -190.5l1 -1v-3v-2zM512 490q-61 0 -104.5 -43.5t-43.5 -105t43.5 -105t104.5 -43.5t104.5 43.5t43.5 105t-43.5 105
t-104.5 43.5zM512 252q-37 0 -63 26.5t-26 63t26 62.5t63 26t63 -26t26 -62.5t-26 -63t-63 -26.5z" />
    <glyph glyph-name="uniE659" unicode="&#xe659;" 
d="M773 603q-53 52 -120 80t-140.5 28t-141 -28t-119.5 -80t-80 -119.5t-28 -141t28 -141t80 -119.5t119 -80t141 -28t141 28t120 80q70 71 95 166t0 189.5t-95 165.5zM739 116q-94 -94 -226.5 -94t-226.5 94t-94 226.5t94 226.5t226.5 94t226.5 -94q61 -61 83 -143.5
t0 -165t-83 -144.5zM671 252l-127 74v201q0 12 -9 21t-21.5 9t-21.5 -9t-9 -21v-215q0 -13 23 -26q2 -3 14 -10l126 -77q12 -6 22.5 -3t16.5 14q7 12 2.5 24t-16.5 18zM671 252z" />
    <glyph glyph-name="uniE65A" unicode="&#xe65a;" 
d="M794 296l-503 503l-61 -63l441 -439l-441 -442l61 -61z" />
    <glyph glyph-name="uniE65B" unicode="&#xe65b;" 
d="M857 -60l-443 443l443 444v1l-69 69l-515 -514l515 -514l69 70v1z" />
    <glyph glyph-name="uniE65C" unicode="&#xe65c;" 
d="M921 673l-534 -489l-287 242l-37 -37l324 -325l1 1l571 571z" />
  </font>
</defs>
</svg>
